<svg width="1730" height="1644" viewBox="0 0 1730 1644" fill="none" xmlns="http://www.w3.org/2000/svg">
<rect width="1730" height="1644" fill="none"/>
<path d="M927.332 960.182C918.793 979.312 915.605 999.554 913.937 1020.25C921.435 1013.11 922.155 1003.06 925.795 994.423C933.995 974.97 942.553 955.693 952.127 936.908C954.612 932.033 959.366 928.139 963.575 924.347C980.315 909.268 995.567 892.102 1016.21 882.133C1036.21 872.476 1056.73 863.875 1077.17 855.173C1086.26 851.306 1094.94 856.022 1102.62 859.48C1116.91 865.916 1132.12 865.598 1146.44 868.51C1157.29 862.611 1158.58 848.495 1169.54 843.357C1177.03 848.192 1180.16 857.376 1189.33 860.026C1192.02 854.185 1194.53 848.192 1200.19 842.703C1213.64 847.16 1224.69 856.446 1235.68 865.283C1240.61 863.416 1242.77 858.343 1247.96 857.705C1291.17 869.362 1287.51 871.011 1350.83 843.942C1347.99 855.068 1345.89 865.135 1342.83 874.904C1333.91 903.423 1319.96 930.195 1310.93 958.412C1304.18 979.506 1289.98 993.632 1277.11 1008.94C1263.93 1024.62 1246.54 1036.11 1227.18 1044.78C1208.74 1053.03 1189.97 1058.74 1170.15 1061.67C1168.66 1061.89 1167.27 1062.72 1165.77 1061.98C1164.77 1061.48 1163.85 1060.81 1162.24 1059.81C1165.78 1046.5 1173.44 1034.89 1178.43 1022.2C1183.07 1010.4 1186.48 998.298 1189.16 985.963C1190.07 981.742 1189.7 977.503 1186.08 972.128C1169.5 964.732 1152.5 954.131 1132.14 951.858C1126.34 951.211 1121.31 947.737 1115.09 947.77C1093.98 947.881 1074.67 954.183 1056.28 963.814C1031.92 976.572 1012.33 994.43 998.74 1018.59C997.264 1021.21 994.931 1023.35 992.338 1026.51C968.079 1019.21 943.383 1015.34 918.125 1024.89C933.084 1033.86 948.456 1041.48 968.063 1039.3C967.078 1054.06 962.038 1065.99 957.26 1077.61C922.174 1081.47 891.284 1074.22 863.806 1054.25C840.572 1037.37 817.814 1019.83 794.601 1002.91C783.727 994.988 772 988.645 758.985 984.416C745.295 979.968 733.649 970.01 718.071 970.857C720.596 953.924 732.75 945.014 741.633 932.929C728.817 922.106 715.465 914.319 700.59 909.036C682.551 902.628 663.882 900.718 645.034 903.041C631.642 904.692 621.212 913.339 611.22 921.553C600.398 930.45 588.844 938.989 583.749 953.006C560.819 955.669 541.107 944.164 520.063 944.178C518.306 937.962 520.655 934.528 523.196 931.188C553.042 891.956 591.998 865.936 639.118 852.197C656.553 847.113 674.586 849.333 691.52 853.862C736.67 865.939 779.724 883.269 820.313 907.005C834.624 915.373 845.815 927.9 861.092 934.547C879.171 942.414 897.492 949.617 916.691 954.246C920.975 955.279 924.865 956.272 927.332 960.182Z" fill="#E04D2B"/>
<path d="M336.276 470.657C329.482 465.195 320.124 470.368 313.224 465.087C311.776 463.979 309.81 463.548 308.863 463.14C305.326 458.822 308.946 454.96 307.397 449.753C280.734 444.346 254.322 434.63 226.767 432.268C220.662 428.311 225.937 423.781 225.58 420.382C216.808 414.723 205.982 418.666 198.437 413.24C195.124 409.614 197.272 405.715 195.448 402.161C194.456 401.711 193.022 400.445 191.706 400.558C173.138 402.147 155.384 394.343 136.756 396.097C119.606 397.712 102.394 399.095 85.186 399.45C79.2424 399.573 69.9191 403.656 68.0232 393.191C69.0955 389.625 71.0764 388.36 73.4333 388.005C93.8666 384.933 112.019 374.653 131.855 369.624C143.901 366.57 156.268 364.871 168.398 364.212C191.052 362.98 213.357 357.539 236.208 359.06C262.264 360.794 288.513 360.873 314.354 364.196C335.431 366.907 355.875 374.236 376.884 377.87C399.709 381.817 420.856 390.875 442.915 397.078C472.895 405.509 501.694 417.642 530.089 429.916C563.413 444.322 597.059 459.396 627.025 480.049C654.557 499.025 682.658 517.561 706.648 541.575C722.802 557.746 742.048 570.79 758.689 586.525C771.478 598.619 782.6 612.528 793.951 626.06C797.453 630.234 801.034 633.845 806.486 635.915C803.129 647.238 793.763 654.934 791.85 666.195C789.955 677.354 790.528 688.425 792.038 699.472C797.174 702.306 802.422 704.595 806.997 707.835C824.224 720.034 844.104 721.654 864.087 722.1C886.731 722.605 909.421 723.057 930.511 719.598C943.777 726.495 950.996 737.731 960.827 746.033C960.928 746.405 961.196 746.825 961.107 747.143C952.517 777.578 972.182 796.097 990.299 814.8C1000.66 825.496 1012.81 834.248 1030.42 838.433C1014.64 862.285 988.795 867.118 969.091 882.019C942.592 865.503 914.198 853.506 894.558 829.736C885.483 818.752 874.791 807.342 874.418 790.916C886.005 785.948 889.964 777.322 888.236 765.893C869.234 746.735 848.507 746.891 824.816 760.579C823.431 761.905 825.934 766.648 822.474 770.261C807.631 772.923 792.109 775.506 776.675 778.536C763.308 781.161 750.654 786.523 740.609 795.406C729.674 805.077 715.91 811.29 706.948 823.339C705.813 824.866 703.242 826.108 700.272 825.472C698.573 820.706 700.481 814.849 695.582 810.925C703.765 801.194 708.653 790.672 714.901 781.128C724.88 765.885 735.079 749.419 757.118 752.061C760.648 745.334 759.21 739.726 758.935 734.415C753.703 729.429 749.383 724.403 741.895 725.193C737.848 735.245 728.991 740.749 718.554 738.557C694.591 733.523 670.652 727.959 646.101 727.562C632.578 727.344 619.102 728.366 605.4 730.595C584.753 733.955 565.687 741.536 545.822 746.798C518.351 754.075 494.153 768.076 471.408 784.803C457.457 795.063 443.314 805.063 429.421 815.399C426.552 817.533 424.214 818.353 421.348 816.086C420.93 813.993 421.214 812.008 422.575 810.551C437.299 794.787 449.587 777.029 466.127 762.577C475.407 754.469 488.783 747.142 489.15 731.358C489.235 727.708 493.554 726.181 495.414 722.439C495.277 719.675 495.109 716.271 494.91 712.228C497.207 710.789 499.706 709.223 502.203 707.66C498.835 702.428 494.507 698.459 492.606 693.326C493.021 688.832 499.047 689.875 499.056 685.076C498.569 681.892 494.887 680.314 492.968 676.912C492.968 673.892 492.968 670.506 492.968 667.639C486.921 658.365 471.249 659.573 470.133 644.526C463.67 640.086 452.524 642.562 447.76 633.869C439.228 630.642 430.358 632.111 423.669 628.776C420.394 624.915 424.807 622.106 422.727 618.696C415.264 618.073 412.441 612.347 411.774 606.54C389.329 599.73 368.226 600.866 347.006 605.617C341.54 606.841 335.689 605.698 330.112 605.667C320.781 605.615 311.121 607.679 303.224 613.704C299.407 616.615 295.433 618.413 291.08 618.105C286.503 616.831 286.996 612.486 284.69 609.911C285.598 609.048 286.289 607.835 287.241 607.573C295.129 605.41 301.358 600.005 308.636 596.603C313.62 594.273 318.936 590.147 321.399 585.416C327.989 572.76 336.261 561.973 347.444 553.064C350.955 550.267 349.923 544.492 351.338 540.189C353.628 536.897 357.634 535.943 360.456 533.634C363.184 527.01 350.16 522.907 357.994 515.651C360.543 512.503 368.002 515.01 367.386 508.729C363.97 496.77 346.755 494.427 349.384 478.847C345.174 476.176 340.533 473.232 335.892 470.289C345.789 470.51 354.113 474.458 360.442 479.088C362.721 484.43 357.969 486.165 359.142 489.942C363.948 496.272 368.494 503.381 375.174 507.6C377.037 517.619 363.436 516.455 364.225 525.666C366.019 528.573 370.324 531.12 368.625 536.577C365.127 540.71 359.627 542.864 355.318 546.37C356.213 554.599 352.648 560.598 346.235 564.77C337.023 570.761 332.734 580.477 326.318 588.398C328.765 590.615 330.495 589.29 332.318 588.891C353.388 584.277 374.011 577.946 395.718 575.855C426.769 572.863 457.515 566.855 488.778 565.727C496.021 565.466 503.277 564.59 510.522 567.112C521.871 571.064 534.328 570.524 545.732 570.677C561.926 570.893 577.562 573.952 593.169 576.187C618.491 579.814 643.435 586.375 668.346 592.483C689.202 597.596 710.731 602.361 719.296 626.091C723.701 626.773 726.819 629.55 730.781 628.821C734.862 627.642 737.493 624.857 740.224 621.725C742.247 612.482 740.602 603.913 732.476 598.211C725.708 593.462 718.173 593.652 710.622 599.407C701.94 595.367 695.425 588.018 688.533 581.603C656.222 551.526 620.227 526.058 585.085 499.668C556.346 478.087 523.667 462.428 490.974 447.384C461.592 433.865 432.114 420.921 400.881 411.591C377.883 404.721 354.541 399.425 331.533 392.783C317.627 388.769 303.78 384.686 289.152 383.975C266.259 382.863 243.996 375.808 220.79 377.031C207.541 377.729 194.212 377.571 180.944 377.098C159.901 376.347 139.47 378.759 119.877 386.811C120.391 387.269 120.879 388.097 121.427 388.14C144.347 389.916 167.276 391.589 190.196 393.359C196.624 393.855 203.28 393.896 209.082 401.206C209.863 402.448 207.738 406.585 211.93 410.018C220.615 413.582 232.061 412.507 241.674 418.663C244.3 420.767 242.744 425.329 244.664 426.618C270.416 434.216 295.236 439.976 318.34 450.845C320.433 453.739 316.789 456.87 320.017 459.623C325.78 461.703 333.35 462.802 336.276 470.657ZM709.774 666.483C706.695 664.687 703.444 663.326 700.838 661.182C687.133 649.901 672.45 640.417 656.276 632.838C644.157 627.159 631.88 621.969 619.487 617.015C603.469 610.613 587.752 602.738 571.125 598.746C546.626 592.865 521.546 588.983 496.511 585.894C477.247 583.517 457.77 585.331 438.173 582.702C418.893 580.116 398.588 583.665 378.943 586.167C372.498 586.989 364.39 587.46 359.005 594C381.208 596.259 403.9 591.705 425.246 604.001C431.879 620.661 449.658 625.263 464.225 633.933C469.528 636.477 476.138 635.643 479.28 638.312C484.121 643.312 480.068 647.636 483.927 652.904C499.246 657.393 501.566 674.202 508.234 685.394C510.153 691.534 503.927 692.138 504.663 696.266C504.413 701.619 510.551 704.251 510.459 710.132C499.998 720.334 496.491 735.023 489.257 748.356C556.583 701.194 629.781 673.798 713.05 676.97C716.368 681.442 718.826 687.941 726.924 685.473C728.85 681.878 731.319 678.428 732.102 673.312C730.867 670.092 729.393 666.251 728.307 663.42C720.366 657.151 715.382 662.705 709.774 666.483Z" fill="#E04D2B"/>
<path d="M306.346 651.189C311.115 646.957 309.216 640.82 316.136 639.562C315.46 639.619 316.328 639.274 316.939 639.534C337.548 648.303 360.219 650.319 380.765 659.542C409.392 672.392 437.094 686.207 456.006 712.719C457.726 715.13 460.469 716.813 463.368 719.395C454.732 732.979 457.607 751.889 441.535 763.026C400.468 703.036 340.823 677.734 273.529 678.386C207.711 679.024 146.395 709.527 135.232 735.634C141.773 741.269 152.315 738.836 159.09 746.813C150.533 751.934 143.553 757.956 137.95 765.759C134.843 770.087 132.323 774.652 129.693 779.173C119.842 796.112 123.63 811.336 135.541 825.767C155.864 850.388 182.66 861.233 213.715 861.853C238.738 862.353 263.885 862.524 288.801 860.585C307.809 859.106 326.633 854.923 345.771 853.492C374.583 851.339 403.281 848.39 432.181 853.395C447.266 856.007 462.461 857.884 477.423 861.33C501.529 866.881 523.802 876.406 546.369 891.369C530.297 908.549 517.033 926.797 503.495 944.934C511.185 955.477 517.213 965.01 530.277 967.888C541.346 970.327 552.421 972.758 565.828 973.89C555.55 986.489 546.707 997.33 537.661 1008.42C525.957 1006.63 514.82 1004.8 503.684 1001.81C490.482 998.272 476.718 996.889 463.432 993.257C433.581 985.098 406.052 972.23 380.983 954.041C378.708 952.389 376.546 951.072 375.936 948.063C376.718 938.952 387.846 942.102 391.504 934.464C384.943 923.342 372.791 921.555 361.532 919.484C317.854 911.449 273.803 911.69 229.618 914.108C212.755 915.031 195.78 913.498 178.873 913.081C151.057 912.394 125.224 904.595 99.9232 894.545C88.3839 889.962 79.5424 880.712 70.8443 873.408C70.4369 868.383 74.3217 867.164 75.4356 863.361C71.4655 855.596 77.3538 845.21 69.9889 835.101C61.4154 854.698 52.1587 872.016 53.4937 893.137C37.2752 870.402 33.6284 845.011 35.1436 818.788C36.6971 791.903 47.371 767.712 61.5494 744.287C48.1046 742.975 35.3953 749.18 22.7433 741.896C25.6914 734.594 30.6938 729.329 35.3558 723.992C66.1855 688.701 105.689 667.245 149.963 654.358C186.755 643.648 224.753 641.547 262.789 644.098C277.504 645.085 292.494 646.081 306.346 651.189Z" fill="#E04D2B"/>
<path d="M1023.33 218.614C1015.21 217.006 1005.72 203.07 1007.68 195.833C1008.98 190.999 1012.5 190.43 1017.17 190.617C1022.72 198.001 1031.31 200.888 1039.7 204.766C1072.54 219.923 1105.39 235.352 1127.76 265.762C1130.49 269.467 1133.67 272.838 1135.14 274.596C1152.31 277.318 1165.73 282.906 1179.92 288.209C1181.66 284.032 1181.83 280.739 1178.51 276.935C1164.08 260.403 1159.26 239.051 1150.77 219.602C1143.78 203.566 1138.63 186.722 1132.12 168.742C1132.03 167.105 1133.13 164.395 1135.69 162.408C1138.21 161.971 1140.46 162.23 1142.06 164.296C1156.62 183.174 1175.18 198.042 1192.01 214.666C1215.56 237.923 1223.5 267.58 1221.85 300.033C1221.57 305.461 1221.33 310.717 1223.15 317.142C1238.62 318.121 1243.47 330.208 1247.95 342.942C1253.83 359.666 1265.41 372.426 1278.02 384.481C1279.65 392.559 1278.41 402.327 1289.51 405.185L1289.15 404.84C1290.75 415.707 1301.12 418.994 1307.63 425.389C1317.08 434.671 1329.69 439.933 1340.44 447.663C1343.85 450.109 1347.38 452.643 1348.95 457.531C1345.99 470.749 1344.23 484.995 1331.29 494.031C1321.16 501.097 1310.9 507.663 1298 507.05C1289.37 498.158 1297.3 485.898 1289.6 475.833C1285.08 473.455 1280.93 467.147 1273.76 467.496C1269.89 463.612 1269.16 458.947 1267.58 454.399C1253.76 447.937 1239.06 443.997 1222.35 438.634C1225.13 454.542 1234.91 465.236 1241.5 477.091C1238.83 482.275 1234.27 483.156 1230.16 483.966C1204.16 483.306 1190.1 465.324 1175.94 447.449C1167.97 437.388 1159.9 427.402 1152.36 417.982C1151.51 410.802 1157.63 408.173 1159.51 403.318C1160.31 388.447 1157.52 383.806 1144.61 378.563C1135.12 374.709 1125.63 377.358 1117.8 385.976C1109.61 394.998 1104.31 405.301 1104.11 418.472C1087.75 421.235 1072.78 426.223 1060.34 437.59C1054.86 442.591 1049.87 447.712 1045.97 453.9C1043.77 457.4 1041.61 460.369 1035.37 458.364C1030.94 448.209 1025.14 436.927 1024.16 425.12C1023.17 413.261 1026.58 401.037 1028.06 389.084C1025.15 385.346 1022.25 384.612 1018 387.157C1015.27 388.796 1011.87 390.612 1006.54 387.914C1011.29 369.574 1017.14 351.799 1033.15 339.058C1029.49 331.77 1018.03 337.724 1016.68 327.502C1035.11 318.472 1052.32 306.201 1072.97 300.906C1075.7 292.435 1070.28 286.966 1065.46 283.254C1053.62 274.146 1046.66 261.254 1037.6 250.054C1034.49 246.223 1031.66 242.603 1027.41 241.16C1026.85 236.294 1032.6 239.479 1032.47 235.848C1034.9 236.745 1035.62 239.107 1036.77 241.035C1051.84 266.325 1071.71 287.104 1096.13 303.443C1105.45 309.683 1116.87 308.663 1127.47 312.597C1127.63 309.875 1128.08 308.638 1127.71 307.728C1119.8 288.093 1109.43 270.022 1093.95 255.242C1076.7 238.761 1055.66 227.434 1036.6 213.416C1032.53 210.421 1027.44 208.308 1022.68 207.955C1019.87 209.779 1020.95 211.857 1020.87 213.634C1020.78 215.673 1021.81 217.297 1023.33 218.614ZM1198.72 281.926C1196.83 266.695 1190.86 254.548 1182.69 242.586C1166.24 218.486 1165.76 216.746 1155.57 213.039C1169.75 257.537 1183.56 279.885 1198.72 281.926ZM1229.62 355.679C1230.82 376.527 1239.44 389.9 1257.12 398.917C1257.38 378.349 1246.32 366.509 1229.62 355.679Z" fill="#E04D2B"/>
<path d="M1354.59 247.755C1361.86 250.212 1363.6 257.662 1368.45 263.044C1382.9 268.682 1398.26 272.761 1413.71 275.129C1418.44 271.253 1416.33 268.196 1413.8 264.875C1405.13 253.499 1393.69 245.183 1382.48 236.723C1373.34 229.827 1363.42 223.96 1354.02 217.406C1349.9 214.538 1345.77 211.931 1342.25 210.94C1336.09 211.277 1340.5 216.719 1336.04 218.084C1332.14 207.495 1327.75 197.085 1321.15 185.216C1340.02 188.579 1353.83 200.227 1371.6 201.93C1376.17 207.574 1383.14 211.123 1389.94 214.551C1405.25 222.276 1418.32 232.719 1430.71 244.434C1437.73 251.077 1447.16 254.022 1456.51 256.287C1460.21 257.183 1464.17 256.971 1469.17 260.297C1469.06 227.82 1465.03 197.076 1463.64 166.651C1468.66 164.549 1470.44 167.363 1472.3 169.765C1493.94 197.676 1514.3 226.335 1524.56 260.781C1525.64 264.433 1526.97 268.093 1526.51 272.009C1524.93 285.291 1531.38 296.106 1538.68 305.781C1554.11 326.234 1567.78 348.046 1585.18 367.004C1588.07 370.158 1590.58 373.802 1591.17 378.052C1593.31 393.642 1602.68 404.272 1614.46 413.513C1619.63 417.572 1620.85 424.969 1626.61 428.125C1625.28 446.07 1617.43 455.316 1597.79 461.896C1593.46 450.575 1598.3 434.289 1579.05 428.886C1567.87 430.666 1558.04 425.454 1551.3 412.91C1548.14 407.037 1539.47 406.36 1535.32 399.932C1527.23 400.971 1519.29 398.676 1511.9 396.017C1508.6 399.582 1509.16 402.793 1511.38 405.031C1518.41 412.132 1521.46 422.221 1530 428.335C1536.44 432.94 1535.52 439.491 1531.83 445.123C1527.7 449.043 1522.65 448.416 1516.86 451.682C1498.62 432.774 1471.25 425.445 1455.6 403.975C1452.94 395.722 1460.32 394.451 1463.23 390.386C1464.37 385.746 1463.99 381.217 1463.46 377.621C1458.22 369.421 1452.04 373.937 1446 375.064C1444.19 369.604 1442.23 364.086 1443.44 359.055C1446.07 348.156 1440.97 342.372 1431.59 340.639C1419.23 338.355 1407.58 331.572 1393.86 336.937C1372.97 345.106 1361.08 360.794 1354.78 380.955C1349.65 397.417 1345.25 414.279 1345.53 431.87C1345.56 433.68 1344.57 435.506 1344.1 437.139C1338.62 439.797 1335.28 437.093 1331.56 433.845C1318.59 422.512 1303.34 414.432 1289.15 404.84L1289.51 405.185C1286.63 386.805 1293.61 370.947 1302.4 355.635C1305.05 351.018 1308.41 346.806 1311.78 341.915C1303.84 336.233 1295.92 337.734 1286.92 341.25C1285.94 339.797 1284.87 338.221 1283.48 336.173C1292.84 312.158 1312.43 299.456 1336.08 292.162C1333.61 284.924 1324.88 286.66 1322.91 279.266C1331.43 267.243 1345.46 266.865 1358.52 265.002C1360.41 257.818 1353.7 253.713 1354.51 247.828L1354.59 247.755ZM1473.38 195.152C1469.85 197.664 1470.62 199.719 1470.56 201.461C1469.93 217.718 1472.24 233.757 1475.59 249.529C1478.59 263.651 1487.93 272.952 1502.97 279.549C1504.26 245.858 1492.09 219.605 1473.38 195.152ZM1552.89 359.679C1552.23 342.178 1537.04 338.7 1528.54 328.34C1526.19 345.779 1529.32 349.784 1552.89 359.679Z" fill="#E04D2B"/>
<path d="M1169.36 975.734C1173.17 989.829 1167.63 1003.03 1163.34 1016.14C1158.94 1029.6 1152.95 1042.52 1146.27 1055.02C1141.2 1064.53 1135.24 1073.41 1123.41 1076.31C1116.69 1070.37 1114.26 1061.3 1107.25 1055.4C1095.82 1066.98 1087.23 1079.74 1083.86 1096.18C1088.03 1108.49 1101.21 1110 1110.4 1116C1130.47 1129.1 1150.19 1142.02 1161.62 1164.16C1163.24 1167.29 1165.22 1170.1 1164.6 1173.23C1163.68 1179.04 1157.04 1180.85 1157.47 1188.32C1172.82 1191.36 1190.64 1188.9 1205.92 1200.84C1197.04 1202.39 1189.44 1204.62 1185.2 1212.3C1217.96 1233.63 1224.25 1241.35 1224.29 1260.16C1219.65 1264.14 1216.36 1261.63 1212.41 1258.38C1198.7 1247.08 1198.57 1247.23 1188.77 1246.56C1191.97 1264.07 1204.18 1281.67 1188.47 1298.91C1180.18 1295.26 1177.99 1286.53 1172.72 1280.51C1167.3 1274.31 1164.98 1265.28 1157.33 1261.69C1149.41 1269.79 1153.34 1285.36 1139.36 1288.7C1127.97 1284.19 1132.38 1272.86 1128.12 1265.72C1121.16 1263.29 1114.85 1264.09 1109.85 1269.1C1101.44 1277.52 1090.11 1282.44 1082.79 1292.12C1080.09 1295.68 1076.81 1298.13 1070.12 1295.28C1078.53 1267.81 1094.22 1246.28 1118.83 1231.21C1118.63 1208.1 1100.48 1187.38 1078.21 1182.35C1064.89 1179.34 1051.46 1177.65 1038.59 1175.9C1026.95 1166.47 1018.56 1155.48 1012.68 1142.51C1017.73 1139.18 1022.16 1142.83 1028.7 1142.05C1016.62 1116.44 1009.04 1090.12 1009.66 1062.35C1002.36 1055.84 994.255 1068.98 986.718 1060.29C998.2 1041.72 1008.64 1022.67 1025.78 1008.28C1032.19 1002.89 1037.15 995.799 1043.15 989.864C1063.39 969.844 1087 959.578 1116.32 960.542C1135.54 961.174 1151.79 968.597 1169.36 975.734Z" fill="#E04D2B"/>
<path d="M907.043 531.185C885.168 534.613 868.344 547.421 851.487 560.419C842.256 558.354 837.96 550.468 832.073 544.781C826.052 538.965 825.452 529.397 818.288 523.081C809.874 532.695 809.346 546.355 800.046 554.638C783.61 542.682 776.339 499.9 784.906 466.22C779.031 462.978 773.527 470.656 766.919 466.344C765.79 430.945 779.287 402.673 812.927 383.879C792.604 372.179 773.402 364.183 758.057 348.712C797.262 317.686 833.314 329.203 869.738 353.734C863.259 333.511 851.253 316.582 840.321 298.578C844.513 294.45 848.057 295.59 851.798 298.235C868.686 310.173 887.248 319.633 903.142 333.059C909.411 338.353 914.345 344.76 918.516 351.646C927.184 365.956 939.859 376.772 948.879 388.492C953.81 391.035 957.383 389.048 961.089 390.137C964.805 392.898 966.039 397.341 967.558 401.693C972.811 416.744 981.178 429.959 991.776 441.776C996.481 447.023 999.177 453.162 1001.28 459.803C1005.79 474.045 1009.47 488.747 1024.56 496.595C1029.34 499.081 1031.88 504.33 1033.3 509.908C1031.29 518.708 1023.9 523.512 1018.79 529.974C1010.93 530.881 1003.38 537.19 995.586 529.78C993.545 522.977 998.085 517.373 999.674 510.467C987.692 500.439 969.989 497.004 963.675 479.991C955.499 480.722 949.986 472.228 941.318 475.372C943.634 485.095 956.047 485.946 958.015 497.025C957.525 504.931 949.019 504.264 943.182 507.029C926.947 500.142 911.838 491.56 899.273 478.779C891.101 470.467 884.324 462.684 886.384 449.238C888.871 433.004 882.317 427.304 867.039 429.92C857.9 437.762 857.017 447.757 860.393 458.867C867.434 482.038 879.295 502.146 897.246 518.656C900.738 521.867 905.083 524.792 907.043 531.185ZM847.076 369.399C826.878 350.646 823.287 348.965 797.117 348.503C790.717 348.39 783.574 347.349 777.401 353.597C794.188 370.006 812.97 378.915 835.838 378.516C840.326 376.851 843.666 373.739 847.076 369.399ZM932.021 400.739C926.495 414.397 938.251 425.974 960.206 429.468C952.642 412.373 947.226 406.758 932.021 400.739ZM870.957 327.571C869.03 338.119 881.964 352.579 897.968 357.902C892.503 343.721 881.62 336.192 870.957 327.571Z" fill="#E04D2B"/>
<path d="M649.546 1184.21C647.289 1190.65 650.152 1196.03 646.706 1200.48C642.675 1203.35 639.233 1201.94 637.02 1198.23C630.969 1188.09 620.454 1185.3 611.599 1181.08C595.522 1186.61 598.352 1208.1 582.275 1212.84C574.977 1199.44 578.687 1185.83 579.712 1172.41C564.338 1173.38 555.671 1178.92 534.898 1200.93C533.225 1202.08 532.041 1200.66 530.709 1200.1C529.673 1199.67 528.682 1199.12 528.692 1199.13C536.168 1173.03 552.772 1154.52 577.309 1141.98C556.543 1117.07 553.003 1089.48 560.314 1059.39C567.83 1053.88 572.998 1066.89 582.232 1062.42C579.309 1041.68 578.717 1020.29 585.221 999.789C580.52 997.07 578.216 1001.7 575.513 1001.45C571.958 971.66 595.164 959.603 613.379 944.679C627.018 933.504 643.501 926.615 658.822 917.995C662.308 916.034 665.985 914.264 669.757 915.693C682.227 920.414 695.845 922.257 708.199 931.131C709.83 972.025 691.965 1004.69 660.37 1032.87C654.849 1034.25 648.591 1031.64 643.659 1025.8C620.858 1046.01 620.618 1101.18 636.382 1122.64C652.512 1125.9 667.221 1132.28 678.47 1145.95C674.903 1150.26 670.316 1148.74 666.624 1148.33C662.017 1147.82 658.365 1147.86 655.45 1153.53C673.137 1162.8 686.903 1175.55 691.927 1198.33C676.543 1192.32 664.453 1184.33 649.546 1184.21Z" fill="#E04D2B"/>
<path d="M1282.32 1142.77C1277.89 1130 1276.21 1109.72 1278.58 1097.93C1289.02 1094.35 1290.14 1107.93 1298.15 1108.62C1302.45 1099.16 1292.68 1068.55 1281.48 1057.72C1275.91 1061.3 1270.22 1064.96 1264.61 1068.56C1256.19 1061.15 1256.22 1058.21 1260.13 1048.85C1273.35 1017.29 1298.84 995.119 1319.85 969.517C1323.75 964.769 1328.75 964.695 1334.51 965.934C1348.4 968.921 1356.36 979.824 1365.33 988.956C1375.57 999.382 1383.39 1011.81 1389.05 1025.42C1391.33 1030.9 1392.08 1036.57 1390.65 1042.4C1389.54 1046.88 1387.51 1050.38 1381.19 1049.41C1378.36 1044.25 1375.29 1038.55 1370.56 1034.04C1360.19 1041.1 1349.18 1064.64 1347.36 1084.7C1372.38 1097.22 1397.3 1110.89 1410.05 1138.34C1406.86 1142.66 1402.14 1139.87 1398.46 1142.81C1403.55 1154.75 1408.73 1166.89 1414.07 1179.42C1432.58 1172.19 1450.52 1173.19 1468.61 1178.58C1461.64 1184.17 1452.42 1183.85 1444.64 1189.77C1457.43 1198.59 1471.23 1206.26 1472.98 1224.49C1462.23 1226.06 1455.66 1217.51 1446.09 1216.12C1445.75 1224.97 1452.08 1232.9 1448.26 1243.73C1433.38 1240.85 1427.78 1223.76 1413.87 1219.81C1408.38 1229.4 1415.51 1243.68 1403.01 1251.46C1395.78 1239.79 1394.81 1225.43 1381.7 1217.51C1361.31 1214.2 1349.04 1229.71 1334.09 1243.05C1329.22 1216.99 1347.77 1205.49 1360.07 1189.92C1354.81 1173.14 1340.74 1165.36 1326.15 1158.7C1312.24 1152.36 1298.35 1145.62 1282.32 1142.77Z" fill="#E04D2B"/>
<path d="M1229.65 847.299C1225.7 838.304 1231.32 831.759 1235.33 825.782C1244.54 812.03 1255.1 799.107 1268.91 789.61C1288.53 776.126 1300.99 756.924 1312.04 736.655C1316.33 728.785 1317.15 719.715 1316.36 710.758C1315.01 695.51 1314.93 679.927 1311.48 665.144C1307.27 647.062 1300.35 629.536 1287.56 615.243C1276.89 603.321 1268.87 588.993 1255.29 579.667C1254.27 578.964 1254.18 576.902 1253.35 574.625C1266.01 561.857 1277.7 547.851 1292.81 534.944C1303.18 553.283 1318.63 565.512 1331.36 580.174C1345.46 596.412 1358.23 613.212 1369.76 631.243C1380.42 647.907 1387.51 665.767 1393.01 684.742C1397.82 701.301 1398.6 717.861 1396.35 734.323C1390.89 774.162 1369.05 804.733 1336.95 827.282C1322.93 837.127 1305.04 840.372 1287.77 842.515C1271.07 844.588 1254.3 846.021 1237.54 847.606C1234.92 847.854 1232.22 847.416 1229.65 847.299Z" fill="#E04D2B"/>
<path d="M1037.5 684.469C1036.82 688.227 1034.56 689.535 1032.25 690.288C1030.98 690.805 1031.12 691.299 1031.53 692.25C1034.28 698.741 1039.01 703.594 1043.68 708.779C1062.54 729.744 1087.42 743.145 1108.51 761.285C1125.99 776.326 1141.51 793.046 1154.01 812.462C1157.18 817.382 1156.5 823.754 1159.97 828.11C1156.23 840.96 1153.21 853.522 1141.29 864.151C1119.43 858.577 1098.84 844.081 1074.08 841.835C1063.91 806.194 1034.01 791.919 1006.7 774.854C984.651 761.077 966.557 743.322 952.107 721.518C938.411 700.851 932.747 676.784 922.146 654.839C919.515 649.394 920.685 642.712 922.906 637.854C929.037 624.444 934.089 610.175 945.988 600.128C949.475 597.183 952.401 593.473 955.162 589.797C958.129 585.847 961.514 584.466 966.073 586.38C971.155 597.876 978.096 608.059 986.06 617.631C994.982 628.355 1002.11 641.096 1013.42 649.163C1026.41 658.436 1032.59 671.037 1037.5 684.469Z" fill="#E04D2B"/>
<path d="M951.553 1088.97C954.843 1088.81 957.109 1088.61 959.377 1088.59C988.729 1088.25 999.261 1096.83 1005.23 1126.22C1008.73 1143.45 1012.8 1160.58 1014.24 1177.9C1020.36 1182.27 1027.64 1177.84 1034.09 1181.76C1038.53 1243.03 1021.88 1296.7 976.548 1340.51C982.879 1346.49 993.227 1339.2 1000.21 1346.7C995.667 1355.4 987.614 1362.02 980.491 1367.54C960.548 1383.01 943.382 1401.51 923.602 1417.03C905.678 1431.09 892.093 1449.4 876.103 1465.36C867.551 1473.89 864.53 1485.94 857.791 1495.75C854.79 1500.12 851.343 1504.14 848.443 1508.54C842.283 1517.9 838.009 1527.47 837.206 1539.35C836.398 1551.31 831.186 1562.87 828.641 1574.85C825.877 1587.85 820.04 1600.16 819.406 1613.74C819.299 1616.04 817.584 1616.85 815.2 1616.88C807.181 1605.27 814.497 1590.74 807.976 1578.19C812.642 1572 809.228 1564.54 809.972 1557.43C811.654 1541.36 816.208 1525.89 819.061 1510.08C824.67 1478.99 835.642 1449.53 850.536 1421.7C860.903 1402.33 874.3 1384.89 888.903 1368.57C895.435 1361.27 904.225 1356.28 914.696 1355.64C917.73 1361.65 915.839 1367.88 919.147 1373.21C927.424 1372.32 930.844 1364.85 935.672 1360.12C966.484 1329.95 978.964 1291.46 984.11 1249.83C986.371 1231.54 988.807 1213.31 986.447 1194.81C981.86 1158.85 975.587 1123.48 952.817 1093.56C952.205 1092.76 952.216 1091.48 951.553 1088.97Z" fill="#E04D2B"/>
<path d="M988.158 369.342C972.448 364.054 966.631 346.381 954.324 338.788C953.013 332.17 956.393 328.968 955.962 323.961C953.151 310.619 941.05 316.721 931.793 314.307C923.837 309.411 918.703 300.512 911.93 293.404C899.478 280.335 886.575 267.732 873.067 255.899C850.876 236.458 829.714 215.884 804.924 199.304C783.922 185.259 763.022 170.929 742.333 156.352C721.008 141.327 697.993 128.646 673.556 118.956C671.415 118.107 669.121 117.311 667.347 115.918C638.139 92.9748 602.83 83.5388 568.968 70.6529C546.758 62.201 523.879 55.9579 501.047 50.3339C483.199 45.9376 464.568 41.6891 445.102 42.8085C446.247 50.1408 451.99 51.1226 456.707 53.0283C477.019 61.235 495.297 73.0859 513.836 84.4979C517.13 86.5254 519.433 88.5764 517.996 92.8571C514.777 97.0047 509.139 96.3925 504.3 98.7406C507.172 110.926 523.123 112.248 524.223 125.217C514.681 115.91 503.361 109.138 492.793 101.83C494.714 91.0921 506.666 96.7254 510.186 88.7432C502.059 79.6106 489.556 77.2291 479.633 70.7395C469.234 63.9386 457.069 60.7083 447.079 53.3416C437.704 46.4285 424.624 44.9424 415.601 32.3447C434.933 34.6308 451.474 37.1691 468.111 38.424C496.286 40.5491 524.613 42.0522 552.118 48.5186C566.147 51.8168 580.508 52.9004 594.531 56.9222C604.574 59.8025 616.441 59.0011 626.646 59.7002C630.825 57.4834 630.348 52.7423 634.037 51.1941C639.959 49.9679 645.742 49.9484 650.834 54.3818C647.433 57.75 643.934 52.7513 639.131 56.6267C638.193 57.595 639.686 62.0136 636.968 63.8345C631.427 68.5277 625.562 64.0129 619.057 65.4036C623.467 72.0561 630.263 73.0872 635.754 75.0517C672.599 88.234 707.865 104.919 742.63 122.673C762.381 132.76 781.301 144.489 800.777 155.032C830.574 171.162 856.123 193.113 883.721 212.191C895.098 220.055 905.687 229.891 915.485 239.933C936.549 261.523 957.732 283.052 977.036 306.284C987.349 318.694 993.772 332.78 991.927 349.269C991.19 355.842 997.505 363.014 988.158 369.342Z" fill="#E04D2B"/>
<path d="M421.992 1125.38C433.532 1120.33 464.419 1118.8 470.724 1122.66C468.445 1127.38 464.115 1129.66 459.946 1131.8C451.989 1144.41 446.871 1158.25 442.402 1171.98C437.886 1185.86 439.361 1201.02 439.521 1215.6C439.876 1247.95 429.788 1276.44 410.048 1301.78C407.959 1304.46 405.856 1307.13 403.615 1309.99C412.505 1314.93 422.012 1311.73 431.378 1313.36C433.578 1315.59 435.923 1318.01 434.52 1321.93C433.989 1322.57 433.612 1323.47 433.002 1323.67C420.123 1327.96 408.05 1333.89 397.468 1342.39C388.186 1349.84 376.529 1351.64 366.037 1355.98C348.089 1363.39 331.348 1372.77 314.245 1381.77C295.268 1391.74 278.597 1404.68 261.131 1416.66C247.983 1425.67 238.675 1438.52 227.48 1449.46C209.747 1466.79 202.691 1490.42 189.018 1510.07C184.978 1515.88 184.536 1524.37 183.065 1531.75C180.182 1546.22 177.998 1560.83 175.026 1575.27C172.502 1587.54 173.32 1599.83 173.991 1612.1C174.247 1616.78 174.638 1620.57 168.389 1621.61C167.299 1620.86 165.323 1620.25 164.958 1619.12C159.968 1603.65 154.541 1588.23 155.81 1571.56C155.893 1570.47 156.917 1569.38 156.835 1568.34C153.386 1524.62 173.33 1488.64 195.187 1453.45C213.743 1423.58 243.733 1405.86 269.999 1384.13C290.942 1366.8 315.18 1353.71 334.756 1334.96C352.078 1318.36 369.325 1301.35 382.603 1280.97C389.983 1269.65 394.934 1257.24 397.967 1244.26C404.93 1214.46 406.992 1183.81 412.867 1153.8C414.791 1143.97 422.261 1136.03 421.992 1125.38Z" fill="#E04D2B"/>
<path d="M1136.73 660.112C1145.64 637.379 1169.29 633.185 1182.71 617.457C1189.85 621.322 1193.26 628.639 1201.56 628.211C1201.82 643.744 1212.3 654.095 1219.07 665.649C1237.31 696.785 1245.39 729.448 1241.22 765.313C1243.46 768.435 1245.68 771.527 1248.43 775.355C1236.27 804.931 1212.12 821.514 1184.08 834.476C1178.8 833.62 1177.5 828.465 1176.16 824.491C1170.46 807.693 1163.06 791.649 1155.51 775.674C1152.36 769.006 1152.7 762.435 1153.95 755.523C1157.49 736.05 1156.76 716.916 1151.55 697.581C1148.03 684.532 1143.71 672.062 1136.73 660.112Z" fill="#E04D2B"/>
<path d="M168.298 1330.77C164.707 1329.22 163.256 1326.61 161.899 1323.39C165.532 1313.01 163.618 1301.74 165.847 1290.72C169.331 1273.49 174.541 1256.79 179.901 1240.23C185.167 1223.96 194.574 1209.33 203.353 1194.56C210.936 1181.8 218.299 1168.81 227.705 1157.42C240.515 1141.91 253.187 1126.08 270.506 1114.91C275.56 1111.65 281.248 1111.44 286.383 1109.31C289.923 1110.05 288.854 1115.19 293.575 1115.62C294.14 1115.47 295.839 1115.44 297.016 1114.64C314.843 1102.52 335.884 1097.15 354.662 1087.14C381.452 1072.85 410.288 1068.9 439.924 1069.45C459.479 1069.81 479.236 1066.67 498.588 1071.93C511.869 1075.54 525.134 1079.2 537.949 1082.72C546.353 1094.08 546.64 1097.97 539.646 1106.42C526.495 1104.13 512.988 1103.01 499.348 1102.33C490.761 1101.9 481.869 1098.63 472.861 1097.38C446.69 1093.77 421.12 1094.92 395.768 1103.01C373.245 1110.19 352.049 1119.78 331.567 1131.67C313.166 1142.35 293.585 1151.25 277.066 1164.74C247.684 1188.73 222.597 1216.47 204.57 1250.4C197.63 1263.46 190.532 1276.34 184.238 1289.77C180.743 1297.22 179.774 1305.06 177.276 1312.57C175.053 1319.27 171.316 1324.7 168.298 1330.77Z" fill="#E04D2B"/>
<path d="M917.166 1182.12C904.209 1178.52 895.87 1167.46 881.734 1163.36C887.012 1178.77 896.828 1191.3 900.967 1206.55C895.411 1211.7 892.322 1208.59 889.196 1203.94C882.026 1193.29 871.426 1185.93 862.615 1176.84C860.322 1174.48 856.925 1173.19 853.257 1170.92C851.088 1181.45 855.358 1191 853.68 1200.36C851.087 1202.56 848.575 1202.27 845.708 1201.06C840.458 1190.63 835.632 1179.63 826.047 1172.37C804.769 1178.33 794.379 1200.91 770.82 1207.06C772.447 1183.18 787.053 1167.49 798.565 1148.91C790.167 1134.74 777.595 1121.49 777.697 1101.72C780.262 1098.11 786.171 1098.43 791.84 1096.05C786.052 1081.63 779.908 1067.63 776.68 1052.59C774.777 1043.72 776.567 1034.93 775.517 1026.15C775.092 1022.59 777.851 1020.72 781.869 1019.21C811.627 1033.66 841.249 1048.99 856.514 1080.94C854.184 1085.29 850.328 1085.05 847.817 1088.07C852.952 1097.19 853.467 1108.08 857.118 1117.63C878.687 1119.69 899.931 1120.49 913.651 1141.29C907.593 1144.9 901.589 1141.46 896.744 1145.24C905.519 1156.15 916.006 1166.17 917.166 1182.12Z" fill="#E04D2B"/>
<path d="M1412.46 713.594C1407.24 700.533 1411.67 689.163 1415.68 677.281C1443.64 670.981 1467.89 658.377 1484.34 634.194C1493.63 620.533 1500.03 605.478 1502.15 588.698C1503.52 577.825 1506.35 567.137 1508.63 555.866C1502.34 554.049 1496.77 555.14 1492.11 556.839C1468.35 565.488 1443.85 571.659 1419.44 577.748C1401.09 582.328 1390.48 591.97 1387.41 609.953C1384.65 611.983 1382.03 611.359 1378.75 610.707C1373.87 599.454 1364.48 590.632 1358.55 580.264C1361.19 571.621 1368.64 570.453 1374.43 569.571C1417.14 563.066 1454.94 543.599 1493.34 525.652C1507.1 519.218 1515.9 507.483 1523.37 494.988C1526.95 489.017 1531.69 484.04 1535.17 478.021C1542.59 465.19 1548.18 452.038 1547.43 436.849C1547.34 434.978 1547.8 433.052 1548.22 431.199C1548.36 430.554 1549.16 430.055 1550.15 428.938C1561.83 432.051 1568.11 443.681 1579.28 447.929C1581.01 461.839 1574.98 473.922 1571.4 486.145C1565.98 504.643 1556.18 520.964 1543.95 536.33C1535.41 547.061 1530.75 561.444 1529.38 575.173C1527.16 597.384 1517.93 616.711 1509.68 636.783C1492.72 677.998 1460.66 700.665 1419.69 713.167C1417.91 713.711 1415.87 713.42 1412.46 713.594Z" fill="#E04D2B"/>
<path d="M1407.23 1111.16C1402.83 1100.72 1399.3 1092.36 1395.94 1084.36C1399.59 1078.47 1403.99 1077.67 1409.32 1079.61C1418.12 1082.82 1426.3 1082.45 1435.67 1079.53C1442.83 1077.3 1452.49 1075.76 1459.8 1079.71C1476.71 1088.86 1495.94 1089.01 1513.57 1095.22C1534.83 1102.7 1556.41 1109.04 1575.47 1121.9C1584.35 1127.89 1593.91 1132.84 1602.72 1139.14C1615.8 1148.5 1623.73 1162.42 1633.1 1171.66C1638.17 1175.78 1641.89 1172.47 1645.08 1174.3C1673.07 1209.46 1717.32 1271.54 1703.99 1385.09C1699.88 1387.37 1697.52 1391.8 1695.31 1395.51C1691.94 1394.94 1690.41 1393.31 1691.03 1391.36C1693.19 1384.53 1692.04 1378.35 1689.53 1371.74C1683.97 1357.1 1683.87 1341.13 1679.16 1326.17C1674.03 1309.9 1669.36 1293.62 1662.4 1277.88C1653.55 1257.85 1644.32 1238.09 1632.32 1219.84C1614.99 1193.48 1595.35 1169.16 1569.63 1150.04C1555.14 1139.27 1538.47 1132.93 1522.9 1124.46C1514.25 1119.75 1502.96 1120.46 1493.61 1115.29C1478.72 1107.05 1462.6 1105.46 1445.48 1105.17C1432.27 1104.96 1420 1106.92 1407.23 1111.16Z" fill="#E04D2B"/>
<path d="M500.355 237.186C460.621 235.131 421.623 232.543 382.557 234.56C399.867 237.794 417.784 235.043 435.041 241.698C437.382 244.185 438.922 247.697 440.321 251.289C460.218 256.895 481.005 259.656 499.171 268.765C500.418 272.03 497.798 272.766 497.32 274.499C505.969 279.677 516.28 282.239 523.533 290.19C519.415 297.15 512.747 294.272 505.808 296.492C501.372 299.477 497.176 307.392 486.558 304.896C495.239 299.829 501.87 294.049 508.562 287.667C503.399 276.523 489.378 284.364 483.678 276.842C479.646 274.003 484.247 270.084 478.998 266.658C464.511 263.321 447.881 259.491 431.434 255.703C428.861 252.677 429.403 249.306 430.624 245.718C414.059 240.785 397.755 243.625 381.792 242.666C365.815 241.706 349.661 243.796 333.58 244.443C318.361 245.055 303.505 253.487 287.733 246.978C318.392 235.449 349.092 225.074 381.156 216.572C385.576 219.581 390.91 221.445 397.538 220.578C404.749 219.635 412.171 220.285 419.501 220.28C441.748 220.262 464.03 221.029 486.235 220.054C510.98 218.967 535.34 222.643 559.729 224.933C594.305 228.179 627.952 237.152 661.83 244.877C702.365 254.12 740.489 270.059 779.797 282.653C797.362 288.28 812.093 299.613 828.33 307.936C828.665 308.108 828.462 309.33 828.567 310.911C818.062 313.152 807.523 316.365 796.996 318.313C789.784 319.648 781.372 318.092 773.884 313.452C749.492 298.337 723.126 288.163 695.007 281.61C677.288 277.48 660.66 268.864 643.091 263.837C623.697 258.287 603.774 254.599 584.107 249.991C561.009 244.58 537.516 242.048 513.915 240.461C509.179 240.143 504.801 239.518 500.355 237.186Z" fill="#E04D2B"/>
<path d="M833.568 696.279C825.703 699.75 825.703 699.75 816.767 699.676C810.141 686.936 810.181 673.297 813.559 659.725C821.071 629.543 836.712 603.755 858.972 582.334C865.303 576.241 868.183 567.607 875.84 562.771C888.239 554.941 901.492 548.845 915.22 544.045C926.145 540.226 936.192 534.781 946.388 529.612C953.815 525.847 961.12 521.711 962.945 511.985C963.673 508.102 966.78 504.479 972.15 503.825C977.147 507.469 977.907 514.15 981.668 517.975C982.124 543.405 968.443 561.653 952.882 578.102C933.265 598.839 914.924 620.427 902.127 645.93C896.028 658.087 891.97 671.596 893.599 685.827C894.265 691.652 895.44 697.274 901.096 700.664C903.22 701.937 904.574 703.73 902.955 707.074C890.764 707.928 880.425 702.337 869.254 696.156C864.659 656.376 878.257 622.375 905.323 590.798C891.963 591.429 884.076 597.69 876.956 604.786C858.48 623.202 844.897 644.436 837.841 670.005C835.389 678.887 834.338 687.782 833.568 696.279Z" fill="#E04D2B"/>
<path d="M1366.41 1246.72C1365.49 1255.39 1365.21 1263.38 1374.75 1269.24C1311.42 1287.52 1255.34 1315.36 1211.08 1362.69C1211.81 1368.15 1216.25 1369.29 1218.49 1372.26C1220.43 1374.82 1225.24 1375.15 1224.27 1380.87C1215.77 1383.37 1206.26 1383.01 1197.44 1386.67C1180.81 1393.57 1166.81 1404.21 1153.45 1415.67C1137.12 1429.69 1120.51 1443.64 1107.98 1461.44C1092.73 1483.11 1079.83 1506.07 1071.96 1531.57C1070.5 1536.32 1068.92 1541.05 1069.06 1546.19C1069.19 1550.86 1067.79 1554.98 1064.25 1557.83C1059.94 1556.31 1060.04 1552.92 1060.59 1550.73C1064.76 1534.3 1063.05 1517.12 1067.42 1500.72C1076.61 1466.2 1091.89 1434.94 1115.08 1407.52C1126.31 1394.24 1136.44 1380.04 1147.1 1366.27C1152.49 1359.3 1158.68 1353.35 1165.91 1350.04C1173.23 1353.35 1170.25 1359.59 1172.88 1365.93C1201.12 1337.82 1229.94 1312.86 1263.11 1292.7C1315.13 1261.07 1349.82 1243.9 1366.41 1246.72Z" fill="#E04D2B"/>
<path d="M676.96 35.1236C681.089 44.364 689.435 49.7422 691.819 58.9061C683.026 62.1254 677.65 52.5627 671.449 53.7475C665.954 54.184 664.401 58.206 660.983 59.1467C654.69 58.3697 654.416 55.1044 659.801 45.0482C664.397 43.1382 668.686 45.1227 673.588 46.6753C675.695 36.9829 665.848 32.974 664.671 25.2078C665.777 21.3162 669.557 21.1235 672.119 22.1263C687.031 27.9635 703.446 26.4188 718.412 32.0656C727 35.306 734.236 40.8525 742.877 44.259C757.632 50.0759 772.121 56.8201 786.99 62.3998C797.356 66.29 806.481 72.4055 815.529 78.0418C839.232 92.8083 864.682 104.377 888.315 119.228C892.933 122.129 894.88 126.416 898.844 129.193C935.886 154.686 972.725 180.41 1001.32 219.75C1010.69 236.892 1027.03 252.943 1038.92 273.158C1038.31 276.746 1038.66 281.21 1039.87 286.084C1033.29 287.121 1027.79 290.581 1021.15 288.081C1018.15 279.19 1020.52 268.782 1013.73 261.251C992.986 260.131 984.132 243.727 972.298 230.74C947.184 203.179 918.563 179.357 889.967 155.527C859.446 130.093 825.042 110.862 790.947 90.8573C763.568 74.7929 735.149 61.0545 706.879 46.8669C701.43 44.1325 696.412 40.5489 691.144 37.4437C687.155 35.0925 683.077 32.9212 676.96 35.1236Z" fill="#E04D2B"/>
<path d="M1069.14 649.597C1057.73 648.612 1050.57 657.766 1040.65 661.265C1033.98 655.221 1033.95 646.338 1030.57 638.506C1040.43 633.155 1050.81 631.651 1060.59 628.556C1086.58 620.336 1112.86 613.208 1137.63 601.388C1158.6 591.382 1176.16 576.441 1195.38 563.916C1209.73 554.565 1222.34 543.784 1231.48 529.168C1241.87 512.551 1248.23 494.774 1248.16 474.898C1248.15 471.802 1246.69 467.776 1251.14 465.215C1264.92 472.246 1264.86 490.425 1278.09 497.587C1265.36 523.926 1253.33 549.307 1233.85 569.661C1221.68 582.366 1205.82 590.736 1190.52 599.461C1157.75 618.145 1125.78 637.589 1102.75 668.926C1090.88 685.071 1079.78 701.417 1072.02 719.809C1060.73 718.167 1055.29 711.251 1055.37 700.844C1055.47 686.185 1061.72 673.492 1066.9 660.399C1068.23 657.035 1071.74 654.122 1069.14 649.597Z" fill="#E04D2B"/>
<path d="M589.369 1391.63C599.13 1384.86 602.028 1398.27 611.511 1394.72C606.951 1374.32 595.514 1355.28 596.365 1332.97C597.188 1311.38 597.705 1289.56 605.605 1269.73C613.567 1249.74 624.374 1230.6 636.735 1213.28C642.254 1214.41 641.224 1219.58 645.905 1221.92C650.863 1225.39 658.19 1214.57 664.377 1221.7C632.51 1266.65 622.466 1316.37 630.877 1369.22C636.053 1401.75 652.1 1430.59 670.463 1457.94C686.451 1481.75 704.785 1503.17 728.413 1519.75C731.36 1521.81 731.188 1522.06 733.904 1529.46C696.783 1512.05 661.193 1493.69 634.812 1463.15C616.318 1441.75 596.804 1419.87 589.369 1391.63Z" fill="#E04D2B"/>
<path d="M1089.12 443.835C1106.17 491.04 1120.74 537.83 1160.86 571.377C1138.05 584.774 1115.25 590.151 1091.06 590.053C1084.42 590.026 1079.2 586.67 1076.89 580.231C1069.27 559.013 1053 542.734 1044.3 521.897C1039.35 510.059 1038.69 498.409 1038.12 486.485C1037.71 477.798 1044.55 471.282 1050.41 466.419C1061.84 456.928 1075.39 450.364 1089.12 443.835Z" fill="#E04D2B"/>
<path d="M1496.22 1068.73C1477.7 1071.58 1460.52 1067.96 1444.06 1064.51C1441.19 1058.69 1441.63 1053.86 1442.29 1049.48C1445.75 1026.53 1434.61 1009.68 1420.19 993.921C1406.36 978.814 1390.32 967.192 1370.56 961.168C1364.49 959.319 1358.85 955.767 1351.86 957.936C1348.13 959.095 1345.92 955.345 1342.84 952.885C1349.9 941.913 1358.82 932.406 1366.19 921.787C1370.23 915.974 1380.1 917.703 1386.41 922.138C1399.89 931.612 1415.07 938.236 1427.79 949.124C1455.2 972.584 1480.39 997.872 1490.79 1033.31C1493.8 1043.56 1498.28 1054.78 1496.22 1068.73Z" fill="#E04D2B"/>
<path d="M767.681 380.682C772.241 390.988 769.884 398.091 758.358 407.395C750.229 401.979 740.281 399.645 731.69 393.721C723.251 387.901 712.778 384.908 703.134 382.325C689.801 378.754 677.247 373.477 664.392 368.916C641.602 360.83 617.877 355.75 594.138 355.598C579.389 355.503 565.193 352.384 550.65 352.372C549.146 352.371 547.449 352.423 546.167 351.791C525.666 341.683 503.574 345.901 482.097 344.018C459.366 342.025 437.892 348.047 415.856 350.45C407.942 351.313 399.984 351.415 389.741 349.657C401.675 343.516 412.903 342.438 422.816 337.996C438.214 331.097 454.585 336.066 470.246 333.205C483.589 330.767 497.269 332.624 510.698 328.606C516.799 326.781 525.075 328.645 531.708 329.88C547.26 332.774 562.959 331.5 578.528 333.238C599.113 335.536 619.532 339.385 640.262 340.854C672.923 343.167 703.057 354.747 732.668 368.117C743.955 373.212 755.228 378.926 767.681 380.682Z" fill="#E04D2B"/>
<path d="M479.145 795.087C495.627 786.166 512.062 777.796 526.255 765.817C528.156 764.212 531.37 762.96 533.723 763.299C544.157 764.801 554.499 766.944 565.246 768.923C563.132 777.928 554.235 779.268 549.89 786.241C573.209 793.818 596.538 794.247 620.367 792.689C644.947 791.081 667.698 784.77 688.054 770.771C692.341 775.713 689.479 778.422 687.166 781.484C678.595 792.828 665.764 797.752 653.468 802.811C628.016 813.282 601.153 818.782 573.921 822.267C563.221 823.637 552.342 822.624 542.164 819.471C528.301 815.176 513.621 814.705 500.018 809.448C492.023 806.358 484.641 802.648 479.145 795.087Z" fill="#E04D2B"/>
<path d="M788.214 784.208C799.11 790.924 808.261 797.283 820.464 797.032C819.743 805.38 818.733 812.91 818.507 820.463C817.845 842.6 826.297 860.784 843.324 874.859C849.299 879.798 857.114 880.336 866.239 880.852C860.104 892.661 853.631 901.197 845.99 908.836C837.027 909.996 830.284 905.653 825.904 899.443C815.786 885.098 802.065 872.782 796.374 855.898C788.707 833.151 780.995 809.953 788.214 784.208Z" fill="#E04D2B"/>
<path d="M731.571 1007.61C740.803 1010.99 741.119 1020.23 745.552 1026.27C743.678 1035.83 736.187 1041.62 733.624 1047.39C717.594 1060.6 698.44 1063.53 682.221 1075.6C671.845 1074.84 661.405 1082.34 649.974 1082.52C643.862 1077.81 647.182 1072.26 647.596 1067.58C644.978 1063.65 641.032 1061.43 639.296 1056.91C639.513 1053.3 642.148 1050.4 643.664 1046.31C678.909 1047.82 704.204 1026.81 731.571 1007.61Z" fill="#E04D2B"/>
<path d="M763.073 1092.52C759.526 1097.33 756.172 1100.29 752.383 1102.75C741.048 1110.11 733.763 1121.49 724.372 1130.78C721.737 1133.39 720.928 1136.65 720.555 1140.07C719.321 1151.38 712.491 1159.65 706.801 1168.93C697.616 1164.41 692.728 1157.97 691.724 1149.71C690.684 1141.14 683.737 1132.83 688.559 1124.11C697.026 1108.79 705.332 1093.13 720.248 1082.69C724.894 1079.44 729.729 1076.45 735.232 1072.86C746.687 1075.61 754.081 1084.8 763.073 1092.52Z" fill="#E04D2B"/>
<path d="M1188.24 1070.27C1193.8 1068.08 1193.88 1071.92 1195.38 1073.69C1205.05 1072.25 1213.7 1068.51 1221.37 1062.77C1226.08 1065.56 1230.36 1068.1 1234.72 1070.67C1242.89 1084.99 1251.27 1099.22 1270.37 1102.81C1266.62 1114.14 1262.3 1123.96 1250.62 1128.47C1244.81 1125.45 1239.67 1123.17 1233.17 1122.68C1213.25 1121.18 1190.07 1098.3 1186.71 1078.4C1186.2 1075.37 1186.22 1072.3 1188.24 1070.27Z" fill="#E04D2B"/>
<path d="M860.333 917.109C862.429 906.484 873.702 902.903 879.114 894.543C885.391 884.848 882.249 874.215 886.981 865.077C884.965 859.128 883.604 853.249 883.262 846.521C895.043 843.446 901.963 852.262 910.361 855.603C928.639 895.05 912.283 920.32 891.154 932.523C879.025 931.892 870.059 924.886 860.333 917.109Z" fill="#E04D2B"/>
<path d="M440.457 1047.13C447.195 1033.34 455.913 1023.83 464.275 1014.02C467.957 1009.7 471.631 1008.26 477.301 1009.73C484.957 1011.73 492.63 1013.2 499.916 1016.7C503.778 1018.56 504.85 1020.91 505.176 1024.19C493.579 1032.53 483.287 1041.83 478.718 1056.61C467.063 1048.48 454.593 1047.07 440.457 1047.13Z" fill="#E04D2B"/>
<path d="M1468.03 1162.22C1458.54 1160.47 1449.76 1161.37 1442.79 1153.02C1450.93 1142.89 1455.34 1130.41 1459.58 1117.29C1469.56 1120.51 1478.73 1122.89 1489.33 1119.61C1490.59 1138.66 1476.7 1148.69 1468.03 1162.22Z" fill="#E04D2B"/>
<path d="M481.147 310.879C473.026 324.559 458.337 323.365 445.776 326.991C456.67 319.59 469.753 317.147 481.147 310.879Z" fill="#E04D2B"/>
<path d="M464.807 187.466C472.975 182.465 469.621 174.963 472.812 168.617C473.997 174.463 475.182 180.31 476.273 185.687C472.305 189.019 469.062 187.304 464.807 187.466Z" fill="#E04D2B"/>
<path d="M509.962 153.643C509.962 150.395 509.962 148.54 509.962 145.738C514.843 145.279 520.372 144.385 521.467 136.437C523.674 143.369 523.674 143.369 509.962 153.643Z" fill="#E04D2B"/>
<path d="M1023.36 218.667C1028.81 223.347 1031 229.778 1032.87 236.38C1028.15 234.683 1024.27 231.94 1021.76 227.678C1020.75 224.27 1023.15 221.667 1023.36 218.667Z" fill="#E04D2B"/>
<path d="M508.211 156.635C500.632 160.519 493.179 156.441 485.596 156.856C493.097 154.78 500.633 155.081 508.211 156.635Z" fill="#E04D2B"/>
<path d="M1354.51 247.828C1348.42 244.435 1346.63 238.721 1346.15 232.301C1349.96 236.909 1354.84 240.932 1354.59 247.755L1354.51 247.828Z" fill="#E04D2B"/>
</svg>
