<?xml version="1.0" encoding="utf-8"?>
<!-- Generator: Adobe Illustrator 18.0.0, SVG Export Plug-In . SVG Version: 6.00 Build 0)  -->
<!DOCTYPE svg PUBLIC "-//W3C//DTD SVG 1.1//EN" "http://www.w3.org/Graphics/SVG/1.1/DTD/svg11.dtd">
<svg version="1.1" id="Layer_1" xmlns="http://www.w3.org/2000/svg" xmlns:xlink="http://www.w3.org/1999/xlink" x="0px" y="0px"
	 viewBox="0 0 1729.1754 1643.2256" enable-background="new 0 0 1729.1754 1643.2256" xml:space="preserve">
<g>
	<path d="M927.3323,960.1818c-8.5388,19.1306-11.7269,39.3726-13.3952,60.0644c7.4976-7.1318,8.2176-17.1881,11.8576-25.8232
		c8.2001-19.4528,16.7585-38.7296,26.3324-57.5146c2.4849-4.8757,7.2385-8.7693,11.4479-12.5613
		c16.7396-15.0795,31.9916-32.2453,52.6368-42.2145c19.9985-9.6566,40.517-18.2576,60.9616-26.9594
		c9.0859-3.8672,17.7616,0.8488,25.4441,4.307c14.2964,6.4355,29.5027,6.1179,43.8262,9.0298
		c10.8512-5.8991,12.1349-20.0153,23.098-25.1533c7.4849,4.8351,10.6189,14.0197,19.7871,16.6688
		c2.6935-5.8401,5.2024-11.8334,10.8654-17.3223c13.4413,4.4573,24.4993,13.7425,35.4882,22.5799
		c4.9277-1.8666,7.0886-6.9401,12.2738-7.5778c43.2183,11.6563,39.549,13.3062,102.8776-13.7631
		c-2.8431,11.1256-4.9447,21.193-8.0011,30.9617c-8.923,28.5187-22.8713,55.2915-31.9016,83.5078
		c-6.7511,21.0947-20.9531,35.2203-33.822,50.5278c-13.1794,15.6766-30.5714,27.1732-49.9272,35.8372
		c-18.444,8.256-37.2114,13.9628-57.0349,16.896c-1.483,0.2194-2.8773,1.0435-4.3732,0.3062
		c-1.0033-0.4944-1.9196-1.1655-3.5347-2.1664c3.5363-13.3149,11.1985-24.9188,16.1903-37.6121
		c4.6423-11.8049,8.048-23.9029,10.7269-36.2377c0.9166-4.2206,0.5427-8.4594-3.0754-13.8345
		c-16.5837-7.3965-33.5808-17.9973-53.9453-20.2698c-5.7981-0.647-10.8237-4.1212-17.0481-4.0884
		c-21.1042,0.1113-40.4193,6.4128-58.8068,16.0438c-24.3578,12.758-43.9476,30.6166-57.5411,54.7744
		c-1.4752,2.6218-3.8087,4.7604-6.402,7.9266c-24.2584-7.3065-48.9551-11.1745-74.2122-1.6271
		c14.9584,8.9747,30.3302,16.5907,49.9374,14.4076c-0.9843,14.7676-6.0243,26.6934-10.8024,38.3143
		c-35.0861,3.8628-65.9765-3.3875-93.4542-23.3564c-23.2343-16.8851-45.9926-34.425-69.205-51.341
		c-10.874-7.9246-22.6013-14.2672-35.6162-18.4962c-13.6901-4.4484-25.3359-14.4057-40.9142-13.5593
		c2.5251-16.9329,14.6789-25.843,23.562-37.9277c-12.8159-10.8232-26.1677-18.6096-41.0424-23.8931
		c-18.0396-6.4077-36.7083-8.3182-55.5562-5.9945c-13.3922,1.6511-23.8218,10.298-33.8138,18.512
		c-10.8222,8.8964-22.3766,17.4355-27.4711,31.4528c-22.9301,2.6631-42.642-8.8425-63.6863-8.8278
		c-1.7565-6.2165,0.5923-9.6506,3.1328-12.9902c29.846-39.2324,68.8023-65.2518,115.9218-78.9911
		c17.4358-5.0841,35.4681-2.8646,52.4029,1.6653c45.1492,12.0768,88.2031,29.4066,128.793,53.1427
		c14.3102,8.3683,25.5017,20.895,40.7786,27.5424c18.0789,7.8667,36.3998,15.069,55.599,19.6989
		C920.975,955.2795,924.8646,956.272,927.3323,960.1818z"/>
	<path d="M336.2765,470.657c-6.7941-5.4623-16.1529-0.289-23.053-5.5699c-1.4477-1.108-3.4131-1.5395-4.3603-1.9472
		c-3.5368-4.3184,0.083-8.1798-1.4659-13.3873c-26.6629-5.4067-53.075-15.1223-80.6305-17.4851
		c-6.1045-3.9568-0.8299-8.4867-1.1867-11.886c-8.7722-5.6584-19.5984-1.7157-27.1432-7.1419
		c-3.3128-3.6254-1.1647-7.5251-2.9889-11.0789c-0.9924-0.4498-2.4261-1.7157-3.7418-1.6031
		c-18.5686,1.5893-36.3225-6.2143-54.9501-4.4604c-17.1504,1.6148-34.3621,2.9973-51.5701,3.3527
		c-5.9436,0.1227-15.2669,4.2056-17.1628-6.2593c1.0723-3.5653,3.0532-4.8307,5.4101-5.1852
		c20.4333-3.0728,38.5854-13.3522,58.4222-18.3817c12.0458-3.0542,24.4129-4.7525,36.5421-5.4118
		c22.6545-1.2316,44.9598-6.6725,67.8104-5.1518c26.0559,1.7341,52.3054,1.8127,78.1461,5.1359
		c21.0774,2.7105,41.5208,10.0401,62.5303,13.6736c22.8247,3.9474,43.9714,13.005,66.031,19.2086
		c29.9792,8.4308,58.7788,20.5637,87.1732,32.8379c33.3248,14.4055,66.9708,29.4799,96.9363,50.1333
		c27.5317,18.976,55.6335,37.5119,79.6228,61.5259c16.1542,16.1708,35.4005,29.2147,52.0413,44.95
		c12.7894,12.0934,23.9109,26.003,35.2621,39.5344c3.5015,4.174,7.0826,7.7856,12.5352,9.8553
		c-3.3577,11.3234-12.7233,19.0193-14.636,30.2802c-1.8954,11.1589-1.3224,22.2301,0.1874,33.2764
		c5.1362,2.8344,10.3841,5.1235,14.9589,8.3629c17.2277,12.1992,37.1073,13.819,57.0905,14.265
		c22.6438,0.5054,45.3335,0.9574,66.4235-2.5011c13.2667,6.897,20.4857,18.1329,30.3168,26.4343
		c0.1009,0.3725,0.369,0.7921,0.2791,1.1107c-8.5892,30.4348,11.075,48.9534,29.1927,67.6566
		c10.3607,10.6955,22.5147,19.4484,40.1196,23.6332c-15.7814,23.8517-41.6235,28.6844-61.3277,43.5862
		c-26.4992-16.5161-54.8932-28.5131-74.533-52.2835c-9.0753-10.9841-19.7672-22.3939-20.1397-38.8198
		c11.5867-4.9678,15.5457-13.5938,13.8179-25.0229c-19.0023-19.1578-39.7297-19.0018-63.42-5.314
		c-1.3853,1.3254,1.118,6.0683-2.3427,9.6818c-14.8425,2.6621-30.3646,5.2448-45.799,8.2753
		c-13.3668,2.6246-26.0211,7.9868-36.0652,16.8698c-10.9352,9.6713-24.6998,15.8837-33.6609,27.9332
		c-1.1351,1.5265-3.7065,2.7686-6.6767,2.1324c-1.6993-4.7656,0.2093-10.623-4.6896-14.5464
		c8.1827-9.7318,13.0712-20.2532,19.3188-29.797c9.9787-15.2434,20.1784-31.7093,42.2174-29.0675
		c3.5301-6.727,2.0915-12.3347,1.8167-17.6455c-5.2318-4.9863-9.5523-10.0121-17.0403-9.2223
		c-4.0468,10.0515-12.9043,15.5563-23.3405,13.364c-23.9631-5.0336-47.9026-10.5983-72.4531-10.9947
		c-13.5231-0.2185-26.9993,0.8033-40.7014,3.0328c-20.647,3.3598-39.7129,10.9413-59.5779,16.2033
		c-27.4713,7.2768-51.6686,21.2773-74.4137,38.0049c-13.9507,10.2599-28.0938,20.2594-41.9871,30.5954
		c-2.8694,2.1346-5.2067,2.9543-8.0731,0.687c-0.4181-2.093-0.1343-4.0778,1.2269-5.5351
		c14.7244-15.7634,27.0117-33.5217,43.5521-47.9738c9.2798-8.1083,22.6557-15.4351,23.0231-31.2186
		c0.085-3.6498,4.4036-5.1769,6.2637-8.9191c-0.1364-2.7642-0.3045-6.1681-0.5041-10.2115c2.2971-1.4388,4.7967-3.0043,7.2933-4.568
		c-3.3677-5.2319-7.6965-9.2009-9.5969-14.3334c0.4146-4.4946,6.4412-3.4516,6.4496-8.2501
		c-0.4864-3.1842-4.1691-4.7618-6.0878-8.1642c0-3.0203,0-6.4056,0-9.2734c-6.0465-9.2734-21.7192-8.0654-22.835-23.1123
		c-6.463-4.4407-17.6088-1.9647-22.3732-10.6577c-8.5315-3.2269-17.4019-1.7571-24.0903-5.0921
		c-3.2758-3.8616,1.1374-6.6707-0.9428-10.0803c-7.4627-0.6233-10.2856-6.3492-10.9525-12.1557
		c-22.4456-6.8101-43.5479-5.6749-64.7682-0.9232c-5.4659,1.224-11.3166,0.0805-16.8934,0.0495
		c-9.3315-0.0519-18.9915,2.0125-26.8884,8.0369c-3.8167,2.9117-7.7913,4.7096-12.1443,4.4011
		c-4.5772-1.2736-4.0836-5.6187-6.3893-8.1935c0.9072-0.8629,1.5981-2.0767,2.5502-2.3378
		c7.888-2.1631,14.1177-7.5686,21.3953-10.9708c4.9839-2.33,10.2996-6.4559,12.7632-11.187
		c6.5898-12.6552,14.8617-23.4422,26.0443-32.3517c3.5111-2.7973,2.4797-8.5721,3.8945-12.8754
		c2.2904-3.2914,6.2962-4.2455,9.1183-6.5543c2.7275-6.6241-10.2962-10.7269-2.462-17.9837
		c2.5491-3.1473,10.0077-0.6408,9.3921-6.922c-3.4165-11.9584-20.6317-14.302-18.002-29.882
		c-4.2107-2.6708-8.8513-5.6144-13.492-8.5579c9.8966,0.2218,18.2202,4.1697,24.5493,8.7992
		c2.2798,5.3418-2.4731,7.0767-1.3,10.8537c4.8059,6.3304,9.3527,13.4399,16.0323,17.6584
		c1.8626,10.0195-11.7376,8.8552-10.9487,18.0664c1.7936,2.9063,6.0983,5.454,4.3995,10.9109
		c-3.4977,4.1328-8.9981,6.2865-13.307,9.7932c0.8947,8.2281-2.6693,14.2278-9.083,18.3994
		c-9.2117,5.9915-13.5006,15.7073-19.9169,23.6284c2.447,2.2172,4.177,0.8918,6.0004,0.4925
		c21.0702-4.6142,41.693-10.9443,63.3994-13.0356c31.0517-2.9917,61.7972-9.0005,93.0601-10.1279
		c7.2427-0.2612,14.4992-1.1375,21.7439,1.3849c11.3494,3.9517,23.806,3.4122,35.2108,3.5644
		c16.1938,0.2162,31.8298,3.2753,47.436,5.5104c25.3221,3.6266,50.2663,10.1884,75.1776,16.2961
		c20.8558,5.1133,42.3844,9.8779,50.9496,33.6082c4.4048,0.6815,7.5233,3.4589,11.4858,2.7299
		c4.0801-1.1794,6.7115-3.9646,9.4424-7.0963c2.0231-9.2432,0.3781-17.8115-7.7478-23.5135
		c-6.7677-4.749-14.3033-4.5594-21.8544,1.1955c-8.6818-4.0403-15.1967-11.3889-22.0887-17.8043
		c-32.3109-30.0765-68.3063-55.5444-103.4484-81.9343c-28.7382-21.5809-61.4177-37.2402-94.1109-52.2838
		c-29.3819-13.5199-58.8597-26.4637-90.0923-35.7933c-22.9984-6.8699-46.3404-12.166-69.3484-18.8082
		c-13.9056-4.0144-27.7531-8.0973-42.3814-8.8077c-22.8926-1.1118-45.156-8.1675-68.3618-6.9442
		c-13.2489,0.6983-26.5779,0.5397-39.8458,0.0665c-21.0429-0.7505-41.4744,1.6611-61.0668,9.7132
		c0.5141,0.4586,1.0016,1.2867,1.55,1.3292c22.9202,1.7765,45.8484,3.4489,68.7691,5.219
		c6.4276,0.4964,13.0839,0.5371,18.8856,7.8472c0.7808,1.2421-1.3439,5.379,2.8478,8.8119
		c8.6854,3.5636,20.1311,2.4888,29.7446,8.6451c2.6259,2.1038,1.0697,6.6656,2.9895,7.9553
		c25.7523,7.5976,50.5722,13.3577,73.6766,24.2262c2.0924,2.8947-1.5517,6.0255,1.6762,8.7787
		C325.7796,461.7033,333.3499,462.8017,336.2765,470.657z M709.7736,666.4833c-3.079-1.796-6.3298-3.1569-8.9355-5.3016
		c-13.7053-11.2806-28.3882-20.7645-44.5624-28.3436c-12.1188-5.6788-24.3955-10.8696-36.7888-15.8229
		c-16.0184-6.4021-31.7353-14.2769-48.3621-18.2689c-24.4985-5.8818-49.5785-9.7629-74.6136-12.8519
		c-19.2645-2.377-38.7408-0.5639-58.3383-3.1924c-19.2798-2.5858-39.5845,0.9625-59.2296,3.4654
		c-6.4453,0.8211-14.5537,1.2927-19.9386,7.8328c22.2031,2.2584,44.8955-2.2954,66.2415,10.0004
		c6.6329,16.6601,24.4119,21.2621,38.9787,29.9319c5.3026,2.5443,11.9134,1.7109,15.0547,4.379
		c4.8414,5.0009,0.7886,9.3243,4.6479,14.5929c15.3189,4.4883,17.6388,21.2971,24.3064,32.4898
		c1.9192,6.1396-4.3069,6.7433-3.5711,10.8715c-0.2502,5.353,5.8887,7.985,5.7965,13.8666
		c-10.4613,10.2012-13.9686,24.8907-21.2025,38.2236c67.3261-47.1617,140.5244-74.5579,223.7936-71.386
		c3.3176,4.4716,5.7759,10.9714,13.8732,8.5035c1.9269-3.5952,4.3953-7.0452,5.1784-12.1614
		c-1.2352-3.2198-2.7086-7.0606-3.7949-9.8923C720.3663,657.1513,715.3821,662.705,709.7736,666.4833z"/>
	<path d="M306.3464,651.1886c4.7682-4.2318,2.8696-10.3687,9.7896-11.6265c-0.6764,0.0566,0.1919-0.2879,0.803-0.028
		c20.6094,8.7689,43.2805,10.7854,63.8263,20.0082c28.627,12.8502,56.3284,26.6643,75.2405,53.1766
		c1.7203,2.4116,4.4635,4.0937,7.3624,6.6765c-8.636,13.5836-5.761,32.4939-21.8329,43.6307
		c-41.0672-59.9901-100.7126-85.2923-168.0062-84.6401c-65.8181,0.6379-127.134,31.1406-138.2967,57.2485
		c6.5407,5.6345,17.0822,3.2012,23.8576,11.1782c-8.5573,5.1217-15.5366,11.143-21.1397,18.9468
		c-3.1073,4.3278-5.6271,8.8923-8.2569,13.414c-9.8517,16.9389-6.0636,32.163,5.8477,46.5936
		c20.3228,24.6211,47.1189,35.4659,78.1738,36.0862c25.023,0.4998,50.1698,0.6711,75.0861-1.2683
		c19.0079-1.4794,37.8315-5.6622,56.9698-7.0925c28.8125-2.1531,57.5104-5.1028,86.4105-0.0977
		c15.0844,2.6125,30.2801,4.4893,45.2416,7.9348c24.1058,5.5513,46.3788,15.0762,68.946,30.0394
		c-16.0723,17.1797-29.3356,35.428-42.8735,53.5651c7.6901,10.5429,13.7172,20.0758,26.7816,22.9543
		c11.0693,2.439,22.1436,4.8697,35.5507,6.0015c-10.2775,12.5989-19.1207,23.4398-28.1669,34.5295
		c-11.7042-1.7872-22.8403-3.6188-33.9772-6.6065c-13.2012-3.5413-26.9658-4.9238-40.2513-8.5554
		c-29.8512-8.1597-57.3799-21.0275-82.4488-39.2169c-2.2757-1.6512-4.4371-2.969-5.0477-5.9771
		c0.7822-9.1114,11.9102-5.9611,15.5685-13.599c-6.5611-11.1222-18.7137-12.9092-29.9726-14.9804
		c-43.6778-8.035-87.729-7.7944-131.914-5.3761c-16.8626,0.9229-33.838-0.6101-50.7451-1.0273
		c-27.8151-0.6864-53.649-8.486-78.9494-18.5353c-11.5393-4.5834-20.3808-13.8331-29.0789-21.1378
		c-0.4074-5.0245,3.4774-6.2437,4.5913-10.0466c-3.9701-7.7654,1.9182-18.1506-5.4467-28.2604
		c-8.5735,19.597-17.8302,36.9159-16.4952,58.0369c-16.2185-22.7355-19.8653-48.1267-18.3501-74.3494
		c1.5535-26.8851,12.2274-51.0759,26.4058-74.5007c-13.4448-1.3119-26.1541,4.8928-38.8061-2.3915
		c2.9481-7.3022,7.9505-12.5672,12.6125-17.9039c30.8297-35.2909,70.3334-56.7471,114.6074-69.6343
		c36.7919-10.7094,74.7896-12.8106,112.8255-10.2598C277.5043,645.0848,292.494,646.0815,306.3464,651.1886z"/>
	<path d="M1023.3311,218.6137c-8.121-1.6076-17.6068-15.5439-15.6551-22.7808c1.3036-4.8338,4.8266-5.4028,9.4919-5.2162
		c5.5562,7.3839,14.1378,10.2714,22.5369,14.149c32.8315,15.1573,65.6855,30.5862,88.0566,60.9966
		c2.7252,3.7044,5.9036,7.0755,7.3835,8.8333c17.1603,2.7228,30.5822,8.3109,44.7747,13.6132
		c1.7406-4.1765,1.9114-7.4697-1.4086-11.2738c-14.4279-16.5324-19.2504-37.8836-27.7373-57.3334
		c-6.9973-16.0359-12.1443-32.8792-18.6523-50.8595c-0.0878-1.6375,1.0055-4.3469,3.5713-6.3345
		c2.5179-0.4361,4.7692-0.1772,6.3628,1.8883c14.5652,18.8786,33.1267,33.7465,49.9573,50.3703
		c23.5461,23.2567,31.484,52.9138,29.8328,85.3673c-0.2762,5.4272-0.5137,10.6838,1.3033,17.1085
		c15.4741,0.9789,20.3203,13.0656,24.7985,25.8c5.8813,16.724,17.4619,29.4842,30.071,41.5391
		c1.6278,8.0781,0.3929,17.8463,11.489,20.7041l-0.3606-0.3452c1.6034,10.8674,11.9736,14.1543,18.4838,20.5488
		c9.45,9.2823,22.0607,14.5442,32.8125,22.2743c3.4021,2.4461,6.9324,4.9799,8.5042,9.8683
		c-2.9618,13.2173-4.7129,27.4631-17.6605,36.5c-10.1237,7.0657-20.3838,13.6311-33.2823,13.0182
		c-8.6383-8.8919-0.7061-21.1519-8.4069-31.217c-4.5165-2.3778-8.6659-8.6857-15.8372-8.3366
		c-3.8704-3.8837-4.6041-8.5492-6.1804-13.0973c-13.8235-6.4619-28.522-10.4021-45.2286-15.765
		c2.7813,15.9085,12.554,26.6023,19.1534,38.4574c-2.6774,5.1835-7.2367,6.0654-11.3497,6.8749
		c-25.9967-0.6597-40.058-18.6417-54.2185-36.5167c-7.9706-10.0611-16.0359-20.0472-23.5779-29.4669
		c-0.8501-7.1808,5.2678-9.8098,7.1489-14.6641c0.8015-14.8708-1.9922-19.5122-14.8992-24.7553
		c-9.488-3.8542-18.9806-1.2049-26.8053,7.4128c-8.192,9.0221-13.4933,19.3255-13.6969,32.496
		c-16.358,2.7631-31.3265,7.7513-43.7703,19.1177c-5.4756,5.0016-10.4661,10.1228-14.3628,16.3105
		c-2.204,3.4998-4.3606,6.469-10.601,4.4637c-4.4316-10.1549-10.2334-21.4366-11.2152-33.2442
		c-0.9861-11.8585,2.4272-24.0828,3.8988-36.0352c-2.9023-3.7385-5.809-4.4727-10.0532-1.927
		c-2.7327,1.6391-6.1307,3.4545-11.4614,0.7566c4.7457-18.3394,10.6011-36.1152,26.611-48.8561
		c-3.6615-7.2874-15.1252-1.3334-16.4747-11.5559c18.4366-9.0303,35.6415-21.3009,56.2894-26.596
		c2.7375-8.4713-2.6818-13.9397-7.5084-17.6519c-11.842-9.1076-18.7935-22.0002-27.8622-33.2001
		c-3.1022-3.831-5.9375-7.4508-10.1906-8.8943c-0.5602-4.8655,5.1954-1.6809,5.0626-5.312c2.4318,0.897,3.1509,3.2599,4.3002,5.1876
		c15.076,25.2896,34.946,46.0692,59.3599,62.4077c9.3247,6.2404,20.7397,5.2199,31.3372,9.1544
		c0.1686-2.7219,0.6144-3.9596,0.2474-4.8697c-7.9141-19.6342-18.2833-37.7054-33.7596-52.4854
		c-17.2577-16.4808-38.2898-27.8085-57.3525-41.8257c-4.0741-2.9958-9.1635-5.1081-13.9188-5.4618
		c-2.8138,1.8241-1.7295,3.9024-1.8105,5.6797C1020.7785,215.673,1021.8141,217.2967,1023.3311,218.6137z M1198.7195,281.926
		c-1.8901-15.2309-7.8618-27.3782-16.028-39.3403c-16.4517-24.0997-16.9341-25.8396-27.1217-29.5466
		C1169.7452,257.5372,1183.5642,279.8848,1198.7195,281.926z M1229.6169,355.6793c1.2063,20.848,9.8186,34.2208,27.4991,43.2379
		C1257.3824,378.3488,1246.3171,366.5087,1229.6169,355.6793z"/>
	<path d="M1354.5945,247.7552c7.2676,2.4566,9.0051,9.9071,13.8517,15.2888c14.4587,5.6376,29.8171,9.7173,45.2603,12.0848
		c4.7324-3.876,2.6187-6.9332,0.0903-10.2537c-8.663-11.3766-20.1074-19.692-31.3212-28.1519
		c-9.1405-6.8959-19.0509-12.7628-28.4587-19.3172c-4.1165-2.868-8.2432-5.475-11.7705-6.4656
		c-6.1613,0.3361-1.7455,5.7782-6.2097,7.1437c-3.8976-10.5889-8.2834-20.9989-14.8854-32.8678
		c18.8724,3.3631,32.6743,15.0105,50.448,16.7133c4.5662,5.6446,11.541,9.1938,18.3373,12.6218
		c15.3142,7.7243,28.3827,18.1677,40.7705,29.883c7.0243,6.643,16.448,9.5878,25.8059,11.8528
		c3.7013,0.8959,7.6576,0.6834,12.6543,4.0096c-0.1066-32.4767-4.1365-63.2204-5.527-93.6455
		c5.0221-2.1027,6.7953,0.7113,8.6588,3.1141c21.6451,27.9108,42.0031,56.5693,52.2572,91.016
		c1.087,3.6515,2.4178,7.3113,1.9532,11.2271c-1.5754,13.2827,4.8724,24.0975,12.1716,33.7726
		c15.4299,20.453,29.0958,42.2646,46.4963,61.2229c2.8945,3.1535,5.4038,6.7981,5.9894,11.0481
		c2.1477,15.5895,11.5098,26.2201,23.2892,35.4611c5.1735,4.0587,6.3972,11.456,12.1572,14.6117
		c-1.3301,17.9449-9.1783,27.1913-28.8239,33.7709c-4.3325-11.3208,0.5103-27.6069-18.7382-33.0101
		c-11.1801,1.78-21.0065-3.4313-27.7552-15.9754c-3.1598-5.8732-11.8297-6.5505-15.9718-12.9785
		c-8.0894,1.0387-16.0344-1.256-23.4276-3.9152c-3.2972,3.5652-2.7391,6.776-0.5205,9.0142
		c7.0387,7.1013,10.082,17.1898,18.6263,23.3038c6.4358,4.6054,5.5212,11.1563,1.8248,16.7887
		c-4.1304,3.9197-9.1768,3.293-14.9659,6.5589c-18.2445-18.9081-45.6073-26.2374-61.2631-47.7077
		c-2.6621-8.2526,4.7207-9.5235,7.6338-13.5889c1.1405-4.6396,0.7566-9.1684,0.2285-12.7644
		c-5.2448-8.2003-11.4236-3.6839-17.4608-2.5571c-1.8094-5.4597-3.7729-10.9783-2.5593-16.009
		c2.6293-10.8995-2.4664-16.6832-11.8503-18.4166c-12.3644-2.2839-24.0107-9.067-37.7317-3.702
		c-20.8931,8.1694-32.7793,23.8574-39.0734,44.0188c-5.1388,16.4615-9.5321,33.3237-9.2522,50.9149
		c0.0289,1.81-0.9667,3.6362-1.4335,5.2683c-5.4783,2.6582-8.8188-0.0455-12.5361-3.2931
		c-12.9724-11.3332-28.2207-19.4133-42.4164-29.0052l0.3606,0.3452c-2.8785-18.3802,4.1041-34.2388,12.892-49.5502
		c2.65-4.6172,6.0061-8.8294,9.3787-13.72c-7.9365-5.682-15.8588-4.1814-24.8551-0.6656c-0.9861-1.4529-2.0558-3.0288-3.4456-5.0765
		c9.3661-24.0149,28.957-36.717,52.6074-44.0116c-2.4718-7.2377-11.2079-5.5018-13.1757-12.8958
		c8.5217-12.0232,22.5511-12.4005,35.6097-14.2633c1.8903-7.1849-4.8152-11.2891-4.0078-17.1742L1354.5945,247.7552z
		 M1473.3767,195.1515c-3.5259,2.5124-2.7542,4.5672-2.8217,6.309c-0.6292,16.2572,1.6892,32.2965,5.035,48.068
		c2.9961,14.1222,12.342,23.4234,27.3833,30.02C1504.257,245.8582,1492.0914,219.6048,1473.3767,195.1515z M1552.8865,359.6786
		c-0.6528-17.5003-15.8447-20.9789-24.3427-31.3386C1526.1862,345.7789,1529.3181,349.7839,1552.8865,359.6786z"/>
	<path d="M1169.3627,975.7343c3.8035,14.0944-1.7373,27.2985-6.0242,40.41c-4.3997,13.4571-10.3909,26.3712-17.0665,38.8792
		c-5.0754,9.5096-11.0299,18.3815-22.8602,21.2903c-6.7241-5.9397-9.1514-15.0145-16.1642-20.91
		c-11.4277,11.5787-20.0194,24.3411-23.3895,40.7798c4.1676,12.3059,17.3473,13.8184,26.5424,19.8182
		c20.0676,13.0944,39.7942,26.0134,51.2198,48.1542c1.6163,3.1324,3.6005,5.9415,2.984,9.0731
		c-0.9199,5.8146-7.5675,7.6239-7.1337,15.0902c15.3506,3.0448,33.1669,0.5781,48.4446,12.5165
		c-8.8788,1.5581-16.4711,3.7867-20.7175,11.4662c32.7618,21.3234,39.0509,29.0502,39.095,47.8568
		c-4.6388,3.9823-7.9327,1.4746-11.8811-1.7794c-13.7163-11.3037-13.8401-11.1534-23.6415-11.8225
		c3.2009,17.5093,15.411,35.1149-0.2975,52.3562c-8.2925-3.652-10.4847-12.3788-15.7546-18.4056
		c-5.4148-6.1926-7.7394-15.2261-15.384-18.8136c-7.9193,8.0933-3.9897,23.6683-17.9781,27.0018
		c-11.3856-4.5059-6.9756-15.8357-11.2357-22.9762c-6.9598-2.4316-13.2673-1.6304-18.267,3.3759
		c-8.4113,8.4226-19.7404,13.3479-27.0649,23.0223c-2.6991,3.5651-5.9789,6.0081-12.6658,3.1665
		c8.4117-27.473,24.0963-49.0034,48.7073-64.0747c-0.2-23.109-18.3479-43.8258-40.62-48.8572
		c-13.3186-3.0088-26.7484-4.6997-39.6233-6.4501c-11.6396-9.4366-20.0299-20.4176-25.9058-33.3971
		c5.0483-3.3224,9.4765,0.3285,16.0236-0.457c-12.0835-25.6101-19.6625-51.9252-19.0486-79.6951
		c-7.2965-6.5103-15.4011,6.629-22.9377-2.0652c11.4818-18.5719,21.9207-37.6212,39.0571-52.0066
		c6.4194-5.3888,11.3752-12.4818,17.3748-18.4172c20.2356-20.0196,43.8461-30.2861,73.1709-29.3218
		C1135.5396,961.1743,1151.7882,968.5968,1169.3627,975.7343z"/>
	<path d="M907.0428,531.1848c-21.8749,3.428-38.6988,16.2357-55.5557,29.234c-9.2313-2.0645-13.5271-9.951-19.4141-15.6376
		c-6.0207-5.816-6.6212-15.3839-13.7849-21.7003c-8.4141,9.6136-8.942,23.2744-18.2422,31.5571
		c-16.4361-11.9561-23.7067-54.7378-15.14-88.4182c-5.8749-3.2421-11.3788,4.4363-17.987,0.1246
		c-1.1291-35.3992,12.3685-63.6718,46.0084-82.4656c-20.3232-11.6997-39.5257-19.6957-54.8708-35.167
		c39.2052-31.0262,75.2577-19.5089,111.6815,5.0225c-6.479-20.2229-18.4852-37.152-29.4169-55.1568
		c4.1917-4.1279,7.7357-2.9879,11.4772-0.343c16.8882,11.9384,35.4499,21.3987,51.3441,34.8242
		c6.2683,5.2947,11.2021,11.7011,15.3734,18.5868c8.6686,14.31,21.3427,25.1267,30.3628,36.8465
		c4.9315,2.5427,8.5044,0.556,12.2101,1.6445c3.7161,2.7618,4.9507,7.2042,6.4698,11.5569
		c5.2529,15.0506,13.6191,28.2651,24.2171,40.0824c4.7059,5.2474,7.4019,11.3864,9.5059,18.0267
		c4.5128,14.2421,8.1866,28.9442,23.2768,36.7922c4.7804,2.4861,7.318,7.7354,8.7374,13.3136
		c-2.0042,8.7994-9.3922,13.6041-14.509,20.0654c-7.8536,0.9075-15.4023,7.2167-23.2002-0.1937
		c-2.0417-6.8031,2.4981-12.4074,4.0872-19.3134c-11.982-10.0274-29.6851-13.463-35.9988-30.4757
		c-8.1755,0.7311-13.6884-7.7625-22.3572-4.6193c2.3168,9.7229,14.7292,10.5739,16.6976,21.6532
		c-0.4907,7.9059-8.996,7.2391-14.8337,10.0042c-16.2346-6.8872-31.344-15.4686-43.909-28.2501
		c-8.1713-8.3121-14.949-16.0948-12.8888-29.5412c2.4873-16.234-4.0665-21.9334-19.345-19.3177
		c-9.1392,7.8423-10.0219,17.8373-6.6459,28.9468c7.0415,23.1714,18.9024,43.279,36.8532,59.7887
		C900.7382,521.8674,905.0827,524.7919,907.0428,531.1848z M847.0756,369.3985c-20.1981-18.7529-23.7891-20.4332-49.9586-20.8953
		c-6.3997-0.113-13.5431-1.1544-19.7164,5.0939c16.7878,16.4092,35.5693,25.3182,58.4377,24.9185
		C840.3257,376.851,843.6663,373.7388,847.0756,369.3985z M932.021,400.7386c-5.5261,13.6582,6.23,25.2358,28.1851,28.7294
		C952.6418,412.3734,947.226,406.7581,932.021,400.7386z M870.9571,327.5706c-1.9268,10.5481,11.0073,25.0085,27.0108,30.3318
		C892.5033,343.7208,881.6199,336.1924,870.9571,327.5706z"/>
	<path d="M649.5459,1184.207c-2.257,6.4407,0.606,11.8196-2.8395,16.277c-4.031,2.8627-7.4739,1.4604-9.6865-2.2494
		c-6.0509-10.1453-16.5664-12.9374-25.4207-17.1548c-16.0773,5.5305-13.2475,27.0155-29.3246,31.7592
		c-7.2973-13.396-3.5881-27.0089-2.5623-40.4332c-15.3741,0.9769-24.041,6.515-44.8141,28.5239
		c-1.6736,1.1484-2.8574-0.2721-4.189-0.8298c-1.0363-0.434-2.0276-0.9756-2.0168-0.9703
		c7.4759-26.1044,24.0794-44.6086,48.6169-57.1472c-20.7662-24.9117-24.3062-52.5051-16.9951-82.5928
		c7.5159-5.5128,12.684,7.4995,21.9176,3.0334c-2.9225-20.7394-3.5153-42.1364,2.9891-62.6337
		c-4.7008-2.7191-7.0054,1.913-9.7078,1.6609c-3.5547-29.7902,19.6513-41.8469,37.8661-56.7715
		c13.6384-11.1749,30.1214-18.064,45.4429-26.6841c3.4855-1.9609,7.163-3.7303,10.935-2.302
		c12.4695,4.7216,26.0875,6.5647,38.4417,15.4387c1.6312,40.8942-16.2336,73.559-47.8289,101.7435
		c-5.5205,1.3755-11.7789-1.2373-16.7105-7.0724c-22.8015,20.2072-23.041,75.3809-7.2772,96.8418
		c16.1295,3.2518,30.8384,9.6355,42.0879,23.3079c-3.5674,4.3087-8.1546,2.7913-11.8462,2.3794
		c-4.6074-0.5138-8.2591-0.4727-11.1738,5.1935c17.6874,9.2743,31.4532,22.0228,36.4764,44.8019
		C676.543,1192.3219,664.4529,1184.3303,649.5459,1184.207z"/>
	<path d="M1282.3152,1142.7675c-4.4207-12.7716-6.1093-33.0503-3.7365-44.8372c10.4442-3.5763,11.5576,10.0016,19.5704,10.6895
		c4.2971-9.4619-5.4717-40.0725-16.6726-50.8964c-5.5652,3.5757-11.2567,7.2327-16.871,10.8398
		c-8.4128-7.413-8.389-10.356-4.4722-19.7113c13.2142-31.5627,38.7114-53.733,59.7184-79.3347
		c3.8964-4.7484,8.8999-4.8223,14.6621-3.5832c13.8896,2.9872,21.842,13.8901,30.8158,23.0222
		c10.2445,10.4255,18.058,22.8547,23.7194,36.4675c2.2772,5.4757,3.0337,11.147,1.6002,16.972
		c-1.1045,4.4879-3.1366,7.9818-9.4624,7.0118c-2.8289-5.1565-5.9-10.861-10.6276-15.3629
		c-10.3708,7.0593-21.3783,30.5991-23.1985,50.6603c25.0183,12.5176,49.939,26.1853,62.6934,53.6375
		c-3.1974,4.3175-7.9113,1.5259-11.5918,4.4668c5.0918,11.9418,10.2694,24.0842,15.6086,36.6061
		c18.5049-7.2206,36.4447-6.2203,54.5394-0.8398c-6.9733,5.5941-16.1951,5.2715-23.9673,11.1921
		c12.7887,8.8215,26.5895,16.4921,28.3406,34.7255c-10.7537,1.5621-17.3226-6.9838-26.8932-8.3748
		c-0.3451,8.8522,5.9913,16.7788,2.1667,27.609c-14.8722-2.876-20.4813-19.9675-34.3896-23.9172
		c-5.4912,9.589,1.6436,23.8689-10.8582,31.6471c-7.2266-11.6664-8.1962-26.025-21.3058-33.9512
		c-20.3914-3.302-32.6597,12.207-47.6179,25.5432c-4.8654-26.0614,13.6843-37.5579,25.9827-53.1294
		c-5.2556-16.7841-19.3264-24.5632-33.9178-31.2184C1312.2374,1152.3557,1298.3497,1145.6205,1282.3152,1142.7675z"/>
	<path d="M1229.652,847.299c-3.9556-8.9948,1.6729-15.5397,5.6777-21.5172c9.2142-13.7523,19.7692-26.6747,33.5833-36.1714
		c19.6151-13.4849,32.0759-32.686,43.1256-52.955c4.2904-7.8701,5.115-16.9406,4.3225-25.8969
		c-1.3491-15.2483-1.4337-30.8313-4.8787-45.6144c-4.2136-18.0819-11.1296-35.6086-23.9221-49.9009
		c-10.6713-11.9226-18.6891-26.2499-32.267-35.5765c-1.0236-0.7031-1.1138-2.765-1.9482-5.0418
		c12.6646-12.7675,24.3564-26.7739,39.4678-39.6809c10.3721,18.3387,25.8188,30.5676,38.5475,45.2298
		c14.0968,16.238,26.869,33.0381,38.4003,51.0695c10.6571,16.6638,17.7524,34.5237,23.2539,53.4986
		c4.8011,16.5594,5.587,33.119,3.3309,49.5813c-5.46,39.8384-27.2935,70.4103-59.3958,92.9588
		c-14.0171,9.8455-31.9082,13.0898-49.1796,15.2334c-16.6969,2.0723-33.4747,3.5059-50.2291,5.0907
		C1234.9154,847.8544,1232.2247,847.4159,1229.652,847.299z"/>
	<path d="M1037.5001,684.4689c-0.6797,3.7585-2.9425,5.0656-5.2532,5.8194c-1.2643,0.5164-1.123,1.0106-0.7196,1.9619
		c2.7526,6.4911,7.4841,11.3436,12.1501,16.5286c18.8666,20.9651,43.7444,34.3666,64.8282,52.5064
		c17.4813,15.0405,33.0009,31.7606,45.5084,51.1772c3.1692,4.9199,2.4839,11.2919,5.9561,15.6476
		c-3.7429,12.8505-6.7592,25.4116-18.6824,36.041c-21.8608-5.574-42.4504-20.0698-67.2125-22.3163
		c-10.1633-35.6408-40.0634-49.9159-67.3759-66.981c-22.0488-13.7764-40.1428-31.532-54.5921-53.3354
		c-13.6962-20.6671-19.3606-44.7345-29.9616-66.679c-2.6308-5.4457-1.4606-12.1277,0.7604-16.9854
		c6.1311-13.4099,11.1832-27.6785,23.082-37.7264c3.4871-2.9446,6.4134-6.6545,9.1743-10.3308
		c2.9666-3.95,6.3521-5.3308,10.9109-3.4167c5.0817,11.4958,12.0225,21.6786,19.9868,31.2514
		c8.9215,10.7234,16.0458,23.4646,27.3554,31.532C1026.4141,658.4358,1032.5944,671.0372,1037.5001,684.4689z"/>
	<path d="M951.5529,1088.9742c3.2905-0.1683,5.5562-0.3625,7.824-0.3885c29.3517-0.3362,39.8837,8.2446,45.8524,37.6348
		c3.4984,17.2263,7.5681,34.3547,9.0143,51.6785c6.1176,4.3678,13.3948-0.056,19.8439,3.8583
		c4.4443,61.2708-12.2042,114.9418-57.5395,158.7572c6.3315,5.9762,16.6785-1.3175,23.6581,6.1837
		c-4.539,8.6969-12.5926,15.3191-19.7152,20.8439c-19.9431,15.4692-37.1085,33.967-56.889,49.4867
		c-17.9237,14.0629-31.5089,32.3713-47.499,48.3267c-8.5522,8.5336-11.5729,20.5868-18.3116,30.3945
		c-3.0011,4.3679-6.448,8.3854-9.3484,12.7906c-6.1598,9.3557-10.4334,18.9249-11.2367,30.8121
		c-0.8079,11.9541-6.02,23.516-8.5654,35.4927c-2.7643,13.0067-8.601,25.3182-9.2345,38.8904
		c-0.1077,2.3064-1.8222,3.1168-4.2062,3.1469c-8.0195-11.6135-0.7036-26.1434-7.2243-38.6949
		c4.6659-6.1907,1.2518-13.6465,1.9965-20.7622c1.6814-16.066,6.2357-31.5337,9.0889-47.3489
		c5.6085-31.0883,16.5806-60.5448,31.4748-88.3735c10.3665-19.3689,23.7643-36.8173,38.3671-53.1377
		c6.5316-7.3,15.3217-12.2827,25.7932-12.9285c3.0335,6.009,1.1428,12.2405,4.4503,17.5688
		c8.2775-0.8868,11.6977-8.3524,16.5259-13.0814c30.8117-30.1782,43.291-68.6605,48.4371-110.2922
		c2.2612-18.2926,4.6975-36.5243,2.3376-55.0247c-4.587-35.9609-10.8605-71.324-33.6299-101.2426
		C952.2054,1092.761,952.2164,1091.4832,951.5529,1088.9742z"/>
	<path d="M988.1577,369.3419c-15.7095-5.2877-21.5267-22.9607-33.834-30.5538c-1.3105-6.6182,2.069-9.8199,1.6379-14.827
		c-2.8108-13.3426-14.9116-7.2399-24.1689-9.6541c-7.9561-4.8958-13.0896-13.7952-19.8625-20.9033
		c-12.452-13.0683-25.3554-25.672-38.8633-37.5052c-22.1914-19.4403-43.3525-40.0147-68.1428-56.5941
		c-21.0022-14.0459-41.902-28.3759-62.591-42.9526c-21.3253-15.025-44.3398-27.7058-68.777-37.3963
		c-2.1411-0.849-4.4354-1.6445-6.2088-3.0375c-29.2081-22.9432-64.5173-32.3792-98.3796-45.2651
		c-22.2102-8.4519-45.0883-14.695-67.9205-20.319c-17.848-4.3963-36.4794-8.6448-55.9456-7.5254
		c1.1451,7.3323,6.8888,8.3141,11.6055,10.2198c20.3118,8.2067,38.5901,20.0576,57.1289,31.4696
		c3.2937,2.0275,5.5969,4.0785,4.1595,8.3592c-3.2186,4.1476-8.8562,3.5354-13.6955,5.8835
		c2.872,12.1852,18.8229,13.5074,19.9226,26.4762c-9.5413-9.3069-20.8615-16.0791-31.4293-23.3872
		c1.9206-10.7375,13.8727-5.1042,17.3927-13.0864c-8.1269-9.1326-20.6299-11.5141-30.5531-18.0037
		c-10.3994-6.8009-22.5644-10.0312-32.554-17.3979c-9.3746-6.9131-22.4554-8.3992-31.4781-20.9969
		c19.3325,2.2861,35.8728,4.8244,52.5099,6.0793c28.1755,2.1251,56.5021,3.6282,84.0072,10.0946
		c14.0288,3.2982,28.3902,4.3818,42.4134,8.4036c10.0431,2.8803,21.9094,2.0789,32.1151,2.778
		c4.1785-2.2168,3.7011-6.9579,7.3903-8.5061c5.9224-1.2262,11.7048-1.2457,16.7975,3.1877
		c-3.4012,3.3682-6.9-1.6305-11.7037,2.2449c-0.9376,0.9683,0.5555,5.3869-2.1629,7.2078
		c-5.5402,4.6932-11.4053,0.1784-17.9108,1.5691c4.41,6.6525,11.206,7.6836,16.6969,9.6481
		c36.8456,13.1823,72.111,29.8671,106.8759,47.6212c19.7515,10.0869,38.6713,21.8159,58.1473,32.3589
		c29.7966,16.1298,55.3461,38.0811,82.9443,57.1591c11.3765,7.8644,21.9657,17.7001,31.7635,27.7424
		c21.064,21.5898,42.2472,43.1187,61.5515,66.3502c10.3123,12.4102,16.736,26.4964,14.8903,42.9853
		C991.1903,355.8423,997.505,363.0141,988.1577,369.3419z"/>
	<path d="M421.9925,1125.3777c11.5399-5.0471,42.4269-6.5746,48.7314-2.7151c-2.2793,4.7195-6.6085,6.993-10.7778,9.1407
		c-7.9568,12.6111-13.0747,26.4497-17.5437,40.1779c-4.5168,13.8754-3.0414,29.0396-2.8814,43.6146
		c0.3553,32.3572-9.7326,60.8453-29.4726,86.1801c-2.0891,2.6812-4.192,5.3514-6.4337,8.2118
		c8.89,4.9384,18.397,1.7423,27.7629,3.3715c2.2002,2.2288,4.5455,4.651,3.1428,8.5725c-0.5317,0.6335-0.9083,1.5394-1.5188,1.7427
		c-12.8788,4.2871-24.9517,10.2155-35.5334,18.7135c-9.2818,7.4541-20.9387,9.2527-31.4316,13.5895
		c-17.9479,7.4175-34.6883,16.7971-51.7915,25.788c-18.9774,9.9761-35.6479,22.9132-53.1145,34.8916
		c-13.1475,9.0166-22.4556,21.8623-33.6507,32.8014c-17.733,17.3273-24.7891,40.959-38.4621,60.6146
		c-4.0395,5.8071-4.4818,14.292-5.9526,21.6731c-2.8832,14.4692-5.0669,29.0796-8.0395,43.5287
		c-2.5236,12.2666-1.706,24.552-1.0349,36.8229c0.2563,4.6863,0.6469,8.4729-5.6016,9.5153
		c-1.0905-0.757-3.0666-1.3669-3.4311-2.4966c-4.9901-15.4674-10.4168-30.8855-9.1481-47.5538
		c0.0834-1.0957,1.1066-2.1818,1.0248-3.2196c-3.4488-43.7217,16.4957-79.6996,38.3521-114.89
		c18.556-29.8763,48.5459-47.5896,74.8124-69.3232c20.943-17.3289,45.1808-30.4167,64.757-49.1726
		c17.3222-16.5964,34.569-33.6117,47.8463-53.983c7.3808-11.3243,12.3314-23.7295,15.3642-36.7109
		c6.9633-29.8043,9.0256-60.457,14.9002-90.468C414.7908,1143.9669,422.2607,1136.0306,421.9925,1125.3777z"/>
	<path d="M1136.7292,660.1124c8.9072-22.7339,32.5618-26.9276,45.981-42.6554c7.1351,3.8647,10.5505,11.1818,18.8484,10.754
		c0.2601,15.5331,10.7391,25.8838,17.51,37.4382c18.2458,31.1362,26.3226,63.7985,22.1532,99.6636
		c2.2418,3.1223,4.4622,6.2145,7.2103,10.0422c-12.1616,29.5759-36.3153,46.1588-64.3545,59.1212
		c-5.2766-0.8561-6.575-6.0111-7.9218-9.9855c-5.692-16.7979-13.0919-32.8412-20.6471-48.8171
		c-3.1531-6.6673-2.8116-13.2383-1.5566-20.1507c3.5354-19.4729,2.8124-38.6068-2.3998-57.9424
		C1148.0349,684.5319,1143.7069,672.0624,1136.7292,660.1124z"/>
	<path d="M168.298,1330.766c-3.5908-1.5494-5.0415-4.1516-6.3994-7.3717c3.6336-10.3861,1.7199-21.6583,3.9483-32.6743
		c3.4843-17.225,8.6941-33.9331,14.0546-50.4933c5.2652-16.2656,14.6728-30.8927,23.4512-45.6654
		c7.5837-12.7621,14.9466-25.7532,24.3523-37.1409c12.8102-15.5098,25.4819-31.3419,42.8015-42.5135
		c5.0535-3.2599,10.7411-3.4695,15.8763-5.6011c3.5401,0.7485,2.471,5.8883,7.1924,6.3167c0.5652-0.1514,2.2639-0.1848,3.4413-0.985
		c17.8265-12.1146,38.868-17.4861,57.6457-27.5011c26.7903-14.2889,55.626-18.2325,85.2616-17.6881
		c19.5548,0.3591,39.3124-2.7751,58.6643,2.481c13.2812,3.6072,26.5461,7.2745,39.3614,10.7897
		c8.4036,11.3635,8.6901,15.252,1.6965,23.6986c-13.1512-2.2909-26.6578-3.4053-40.2978-4.0906
		c-8.5875-0.4314-17.4791-3.6989-26.4869-4.9434c-26.1713-3.6161-51.741-2.4615-77.0936,5.6232
		c-22.5228,7.1825-43.7184,16.7765-64.2004,28.6636c-18.401,10.6794-37.9818,19.5776-54.5015,33.0681
		c-29.3822,23.994-54.4684,51.7271-72.4959,85.6567c-6.94,13.0619-14.0381,25.9482-20.3317,39.3707
		c-3.495,7.4539-4.4644,15.291-6.9618,22.8085C175.0533,1319.2661,171.3162,1324.6986,168.298,1330.766z"/>
	<path d="M917.1657,1182.1235c-12.9564-3.603-21.2956-14.6664-35.4315-18.7631c5.2778,15.412,15.0936,27.937,19.2324,43.1901
		c-5.5558,5.1501-8.6446,2.0386-11.7707-2.6055c-7.17-10.6519-17.7695-18.0157-26.5812-27.1029
		c-2.2922-2.3639-5.6898-3.6561-9.3578-5.921c-2.1684,10.5267,2.1008,20.0809,0.4234,29.4438
		c-2.5936,2.1998-5.105,1.901-7.9725,0.6919c-5.2499-10.4266-10.0762-21.4218-19.6608-28.6869
		c-21.2775,5.9565-31.6681,28.5427-55.2272,34.6925c1.6267-23.8784,16.2329-39.5718,27.7457-58.1521
		c-8.3988-14.1683-20.9705-27.4199-20.8686-47.1918c2.5652-3.6104,8.4739-3.2888,14.1432-5.6725
		c-5.788-14.4189-11.932-28.4143-15.1596-43.4534c-1.9034-8.8689-0.1139-17.6582-1.1635-26.4453
		c-0.4246-3.5555,2.3339-5.4305,6.3517-6.9346c29.7585,14.4483,59.3808,29.7761,74.6453,61.7252
		c-2.3295,4.3497-6.186,4.115-8.6975,7.1322c5.1355,9.1177,5.6503,20.005,9.3019,29.5604
		c21.5686,2.0597,42.8123,2.8577,56.533,23.6603c-6.0585,3.6072-12.0621,0.1692-16.907,3.9507
		C905.5192,1156.1478,916.0063,1166.1741,917.1657,1182.1235z"/>
	<path d="M1412.4595,713.5935c-5.2164-13.0605-0.7885-24.4307,3.222-36.3121c27.9622-6.3,52.2108-18.9049,68.6573-43.0878
		c9.2904-13.6608,15.6886-28.7161,17.8093-45.4958c1.3741-10.8725,4.2043-21.561,6.4832-32.8319
		c-6.2889-1.8165-11.8582-0.7255-16.5231,0.9731c-23.7546,8.6494-48.2594,14.8196-72.665,20.9094
		c-18.3546,4.5797-28.9592,14.2217-32.033,32.2045c-2.7587,2.0305-5.3795,1.4065-8.6613,0.7538
		c-4.8743-11.2531-14.2664-20.0751-20.1967-30.4426c2.6426-8.6436,10.0858-9.8112,15.8772-10.6933
		c42.7081-6.5045,80.5118-25.9714,118.907-43.9189c13.7653-6.4344,22.5645-18.169,30.038-30.6639
		c3.5713-5.9708,8.3152-10.948,11.7963-16.9675c7.42-12.8301,13.0105-25.9821,12.2605-41.1713
		c-0.0924-1.871,0.3673-3.7977,0.7864-5.65c0.1461-0.6456,0.942-1.1442,1.9279-2.2616
		c11.6812,3.1132,17.9637,14.7434,29.1324,18.9911c1.7324,13.9101-4.302,25.9934-7.8822,38.2161
		c-5.4183,18.4977-15.2175,34.8189-27.4447,50.1856c-8.538,10.7303-13.198,25.1135-14.5714,38.8425
		c-2.2218,22.2112-11.4491,41.5377-19.7046,61.6096c-16.952,41.2158-49.0181,63.8828-89.9883,76.3848
		C1417.9066,713.7105,1415.8718,713.4196,1412.4595,713.5935z"/>
	<path d="M1407.2279,1111.1606c-4.3983-10.4387-7.9233-18.8047-11.2914-26.7979c3.6576-5.8964,8.0496-6.6906,13.3861-4.748
		c8.7991,3.2029,16.9823,2.8357,26.3518-0.0859c7.1569-2.2316,16.816-3.7715,24.1273,0.182
		c16.9111,9.1447,36.142,9.3003,53.7682,15.5044c21.2646,7.485,42.8408,13.8278,61.8999,26.6831
		c8.8777,5.988,18.4413,10.9438,27.2484,17.2437c13.0829,9.3583,21.0149,23.2783,30.3833,32.5164
		c5.0638,4.1174,8.7843,0.808,11.981,2.641c27.9905,35.1559,72.2397,97.2406,58.9034,210.7944
		c-4.1053,2.2806-6.464,6.7086-8.6805,10.4209c-3.3666-0.577-4.8954-2.2052-4.2784-4.1566
		c2.1581-6.8259,1.017-13.005-1.4957-19.6168c-5.5652-14.6437-5.6641-30.6108-10.3752-45.5692
		c-5.1234-16.2676-9.7988-32.5475-16.7574-48.2897c-8.8529-20.0277-18.0833-39.7908-30.0765-58.0391
		c-17.3291-26.3669-36.9691-50.6843-62.693-69.801c-14.4908-10.769-31.1635-17.1088-46.7247-25.5782
		c-8.6543-4.7103-19.9485-4.0012-29.2991-9.1761c-14.8885-8.24-31.0066-9.8329-48.1216-10.1132
		C1432.2694,1104.9584,1420.0048,1106.9163,1407.2279,1111.1606z"/>
	<path d="M500.3553,237.1859c-39.7341-2.0544-78.7321-4.643-117.7979-2.6263c17.3094,3.2345,35.2269,0.4839,52.4839,7.1388
		c2.3406,2.4866,3.881,5.9985,5.2798,9.5909c19.8969,5.6053,40.6835,8.3672,58.8495,17.4756
		c1.2476,3.265-1.3727,4.0015-1.8509,5.7345c8.6497,5.1773,18.9599,7.7394,26.213,15.6909
		c-4.1177,6.9602-10.7862,4.0813-17.7249,6.3021c-4.4354,2.9843-8.6319,10.8993-19.25,8.4035
		c8.681-5.0665,15.312-10.8465,22.0037-17.2292c-5.1628-11.1436-19.1835-3.3031-24.8839-10.825
		c-4.0314-2.8385,0.569-6.758-4.68-10.1841c-14.4866-3.3364-31.1165-7.1664-47.5637-10.9545
		c-2.5734-3.0265-2.0309-6.3966-0.8103-9.9852c-16.5647-4.9328-32.8689-2.093-48.832-3.052
		c-15.9768-0.9599-32.131,1.1303-48.2118,1.7769c-15.2188,0.6119-30.0745,9.0439-45.8468,2.5349
		c30.6594-11.5283,61.359-21.9041,93.4232-30.4059c4.4201,3.0092,9.7537,4.8731,16.3815,4.0063
		c7.2109-0.9431,14.6331-0.2927,21.9631-0.2984c22.2476-0.0173,44.5287,0.7492,66.7337-0.2261
		c24.7456-1.0869,49.1051,2.5894,73.494,4.8792c34.5765,3.2462,68.223,12.2193,102.1013,19.9445
		c40.5349,9.2432,78.6595,25.1818,117.9671,37.7753c17.5655,5.6277,32.296,16.9604,48.533,25.2832
		c0.3355,0.172,0.1326,1.3943,0.2369,2.9754c-10.5045,2.2408-21.0442,5.4533-31.5706,7.4015
		c-7.2122,1.3349-15.624-0.2205-23.1125-4.8608c-24.3921-15.1148-50.7573-25.289-78.8764-31.8422
		c-17.7197-4.1296-34.3478-12.7454-51.9166-17.7727c-19.3936-5.5495-39.3167-9.2377-58.9836-13.8455
		c-23.0984-5.4118-46.5914-7.9439-70.1923-9.5302C509.179,240.143,504.8009,239.5184,500.3553,237.1859z"/>
	<path d="M833.568,696.2786c-7.8649,3.4713-7.8649,3.4713-16.8013,3.3978c-6.626-12.7407-6.5855-26.3791-3.2075-39.9518
		c7.5118-30.1812,23.153-55.9697,45.4124-77.3907c6.3309-6.0925,9.2111-14.727,16.8687-19.5627
		c12.3984-7.8298,25.6514-13.9266,39.3796-18.726c10.9249-3.8192,20.9717-9.264,31.1686-14.4337
		c7.4262-3.765,14.7317-7.9001,16.5563-17.6264c0.7285-3.8832,3.8349-7.5062,9.2056-8.1606
		c4.997,3.6449,5.7561,10.3255,9.5173,14.1503c0.4563,25.43-13.2246,43.6777-28.7859,60.1274
		c-19.6172,20.7369-37.9575,42.3246-50.7545,67.8282c-6.0995,12.1561-10.1573,25.6654-8.5286,39.8969
		c0.6666,5.8245,1.841,11.4462,7.4972,14.8362c2.124,1.2731,3.4783,3.0668,1.8591,6.4108
		c-12.1907,0.8538-22.5303-4.7375-33.7012-10.918c-4.5945-39.7802,9.0032-73.7817,36.0693-105.3579
		c-13.3597,0.6306-21.2469,6.8917-28.3667,13.988c-18.4763,18.4155-32.0598,39.6497-39.1158,65.2183
		C835.3892,678.8868,834.3381,687.7823,833.568,696.2786z"/>
	<path d="M1366.407,1246.7179c-0.918,8.6768-1.1932,16.6616,8.3381,22.5176c-63.3293,18.2867-119.4094,46.1294-163.6669,93.4518
		c0.7362,5.4648,5.1711,6.6014,7.4137,9.5707c1.9353,2.5627,6.7433,2.8965,5.7815,8.6089c-8.504,2.5013-18.0179,2.146-26.835,5.8043
		c-16.632,6.901-30.6311,17.5382-43.9896,29.0027c-16.3337,14.0179-32.9359,27.9641-45.4639,45.7643
		c-15.2562,21.6765-28.158,44.6321-36.0208,70.1301c-1.4666,4.7559-3.042,9.485-2.9019,14.6187
		c0.1276,4.6686-1.2708,8.7964-4.8108,11.6473c-4.3109-1.5277-4.2135-4.913-3.6586-7.1019
		c4.1647-16.4299,2.4595-33.6151,6.8271-50.015c9.192-34.5145,24.4661-65.7776,47.6606-93.1973
		c11.2312-13.2769,21.3632-27.4829,32.0151-41.2509c5.3917-6.9689,11.5814-12.9222,18.8125-16.2308
		c7.3263,3.3091,4.3425,9.5565,6.9724,15.8905c28.2428-28.1091,57.0641-53.0669,90.2262-73.2307
		C1315.1284,1261.0674,1349.8198,1243.9047,1366.407,1246.7179z"/>
	<path d="M676.96,35.1236c4.1286,9.2404,12.4752,14.6186,14.8589,23.7825c-8.7928,3.2193-14.1686-6.3434-20.3698-5.1586
		c-5.4946,0.4365-7.0485,4.4585-10.4665,5.3992c-6.2922-0.777-6.5665-4.0423-1.1812-14.0985
		c4.5957-1.91,8.8848,0.0745,13.7861,1.6271c2.1074-9.6924-7.7391-13.7013-8.9167-21.4675c1.106-3.8916,4.8859-4.0843,7.4477-3.0815
		c14.9128,5.8372,31.3276,4.2925,46.2932,9.9393c8.588,3.2404,15.8247,8.7869,24.4654,12.1934
		c14.7546,5.8169,29.244,12.5611,44.1129,18.1408c10.3665,3.8902,19.4911,10.0057,28.5385,15.642
		c23.7034,14.7665,49.1536,26.3355,72.787,41.1858c4.6172,2.9013,6.5646,7.1879,10.5289,9.9657
		c37.0414,25.493,73.8801,51.2171,102.4804,90.5567c9.361,17.1417,25.7005,33.193,37.5998,53.4079
		c-0.6129,3.5876-0.2672,8.0519,0.947,12.926c-6.5829,1.0368-12.0817,4.4968-18.7246,1.9973
		c-2.9929-8.8915-0.6248-19.2989-7.4141-26.8298c-20.7468-1.1204-29.6009-17.5242-41.435-30.5116
		c-25.1136-27.5612-53.7347-51.3831-82.3312-75.213c-30.5209-25.4336-64.9246-44.6647-99.0194-64.6695
		c-27.3789-16.0644-55.7986-29.8028-84.0685-43.9904c-5.4486-2.7344-10.467-6.318-15.7349-9.4232
		C687.1552,35.0925,683.0771,32.9212,676.96,35.1236z"/>
	<path d="M1069.1367,649.5967c-11.4034-0.9846-18.5704,8.1691-28.4841,11.6686c-6.6676-6.0447-6.7047-14.9271-10.0825-22.7593
		c9.8551-5.3515,20.2405-6.8552,30.0221-9.9496c25.9839-8.22,52.2701-15.3486,77.0424-27.1689
		c20.9686-10.0056,38.5267-24.9467,57.7468-37.4711c14.3505-9.3511,26.9631-20.1324,36.0985-34.7484
		c10.3865-16.6175,16.754-34.3942,16.6832-54.2701c-0.011-3.0962-1.4691-7.1218,2.9731-9.6828
		c13.7865,7.0313,13.7283,25.2097,26.9574,32.3719c-12.7378,26.3392-24.7666,51.7204-44.2483,72.0735
		c-12.1615,12.7056-28.0236,21.0753-43.3269,29.8008c-32.7678,18.6832-64.7404,38.1281-87.7709,69.4642
		c-11.8658,16.1453-22.9662,32.4912-30.7256,50.8839c-11.2968-1.6423-16.7272-8.5581-16.6545-18.9654
		c0.1024-14.6588,6.348-27.3519,11.5295-40.4449C1068.2284,657.0349,1071.7363,654.1219,1069.1367,649.5967z"/>
	<path d="M589.3694,1391.6296c9.761-6.7704,12.6586,6.6443,22.1412,3.0884c-4.5601-20.4008-15.9961-39.4403-15.1456-61.752
		c0.8228-21.5846,1.3403-43.4083,9.24-63.2407c7.9625-19.9902,18.7689-39.1294,31.1304-56.4435
		c5.5184,1.1239,4.489,6.3015,9.1696,8.6342c4.958,3.4694,12.285-7.3451,18.472-0.2161
		c-31.8669,44.9496-41.9109,94.6658-33.5004,147.5231c5.1763,32.5317,21.2231,61.3711,39.5865,88.7192
		c15.9882,23.8108,34.3218,45.2278,57.9496,61.8037c2.9471,2.0675,2.7751,2.3126,5.4917,9.7136
		c-37.1213-17.4088-72.7116-35.7739-99.092-66.3052C616.3185,1441.7506,596.804,1419.8695,589.3694,1391.6296z"/>
	<path d="M1089.1168,443.8347c17.0513,47.2053,31.6208,93.9948,71.7391,127.5427c-22.8086,13.3969-45.6093,18.7738-69.7935,18.6756
		c-6.6415-0.027-11.8611-3.3831-14.1732-9.8218c-7.6195-21.2184-23.885-37.497-32.5908-58.3339
		c-4.9462-11.8382-5.6068-23.4885-6.1769-35.4127c-0.4153-8.6863,6.4288-15.2025,12.2877-20.0654
		C1061.8436,456.9284,1075.3885,450.3638,1089.1168,443.8347z"/>
	<path d="M1496.2241,1068.7289c-18.527,2.8549-35.7002-0.7654-52.1633-4.2164c-2.8687-5.8185-2.4343-10.6559-1.7732-15.0354
		c3.4648-22.9504-7.6763-39.7947-22.0995-55.5563c-13.8245-15.1072-29.8665-26.7283-49.6268-32.7523
		c-6.0676-1.8497-11.7119-5.4012-18.697-3.2322c-3.7328,1.1591-5.9457-2.5916-9.0273-5.0511
		c7.0647-10.9717,15.9877-20.4789,23.3577-31.0978c4.0344-5.813,13.9069-4.0844,20.217,0.3506
		c13.4797,9.4736,28.6575,16.0984,41.3788,26.9857c27.412,23.46,52.601,48.7482,63.0037,84.1857
		C1493.804,1043.5632,1498.2828,1054.7756,1496.2241,1068.7289z"/>
	<path d="M767.6808,380.6821c4.5598,10.3059,2.2036,17.4084-9.3226,26.7126c-8.1288-5.4153-18.0775-7.7498-26.6682-13.6738
		c-8.4394-5.8197-18.9119-8.813-28.5562-11.396c-13.3323-3.5708-25.8867-8.8483-38.7419-13.4094
		c-22.7894-8.0857-46.5145-13.1652-70.254-13.3176c-14.7488-0.0947-28.9451-3.2136-43.4882-3.2255
		c-1.5039-0.0013-3.2005,0.0508-4.4825-0.5812c-20.5009-10.1083-42.5934-5.8905-64.0706-7.7734
		c-22.7301-1.9927-44.2042,4.029-66.2408,6.432c-7.9141,0.8629-15.8717,0.9649-26.1143-0.7926
		c11.934-6.141,23.1613-7.2196,33.0742-11.6609c15.3988-6.8993,31.7693-1.9308,47.4302-4.7917
		c13.3427-2.4375,27.0229-0.5803,40.4521-4.5983c6.1014-1.8256,14.3767,0.0388,21.0104,1.2734
		c15.5514,2.8943,31.251,1.6203,46.8199,3.3584c20.585,2.298,41.0038,6.1472,61.7338,7.6156
		c32.6611,2.3135,62.7945,13.8934,92.4064,27.2628C743.9548,373.2119,755.2278,378.9257,767.6808,380.6821z"/>
	<path d="M479.145,795.0873c16.4823-8.9214,32.9169-17.2913,47.1099-29.2703c1.9016-1.6049,5.1151-2.8569,7.4685-2.5181
		c10.434,1.5026,20.7757,3.645,31.5225,5.6244c-2.1138,9.0044-11.0108,10.3452-15.3555,17.3179
		c23.3185,7.5765,46.6473,8.006,70.4761,6.4477c24.5804-1.6074,47.3312-7.9191,67.687-21.9176
		c4.2874,4.9414,1.4254,7.6511-0.8876,10.7126c-8.5707,11.3442-21.4022,16.2684-33.698,21.327
		c-25.4521,10.4711-52.3154,15.9706-79.5469,19.4563c-10.7,1.3697-21.579,0.3569-31.7573-2.7965
		c-13.8625-4.2951-28.5425-4.7653-42.1457-10.0229C492.0231,806.3578,484.6411,802.6478,479.145,795.0873z"/>
	<path d="M788.2141,784.2076c10.8963,6.7161,20.0471,13.0757,32.2497,12.8242c-0.7213,8.3483-1.7306,15.8778-1.9566,23.431
		c-0.6623,22.1376,7.7896,40.3214,24.8167,54.3958c5.9753,4.9391,13.7905,5.4769,22.9146,5.9935
		c-6.1345,11.809-12.6071,20.3453-20.2489,27.9838c-8.9627,1.1599-15.7056-3.1827-20.0858-9.3928
		c-10.118-14.345-23.8389-26.6614-29.5294-43.5451C788.7072,833.1505,780.9952,809.9526,788.2141,784.2076z"/>
	<path d="M731.5711,1007.6121c9.2322,3.374,9.5481,12.6189,13.9813,18.6594c-1.8744,9.5627-9.3656,15.3518-11.9282,21.1146
		c-16.03,13.2153-35.184,16.1421-51.4036,28.2177c-10.3756-0.7646-20.8155,6.733-32.2465,6.9117
		c-6.1119-4.7098-2.7925-10.2544-2.3783-14.9313c-2.6181-3.9371-6.564-6.1583-8.2994-10.6699
		c0.2163-3.6136,2.8519-6.5151,4.3677-10.6024C678.9094,1047.8231,704.2042,1026.8148,731.5711,1007.6121z"/>
	<path d="M763.0727,1092.5157c-3.5462,4.8176-6.9009,7.776-10.6894,10.2357c-11.3355,7.3595-18.6204,18.7417-28.0109,28.0291
		c-2.6357,2.6069-3.444,5.8665-3.8174,9.2896c-1.2341,11.3105-8.0637,19.5798-13.7543,28.8602
		c-9.1849-4.5216-14.0729-10.9591-15.0764-19.2214c-1.0406-8.5686-7.9868-16.8817-3.1655-25.6038
		c8.4673-15.3177,16.7732-30.9757,31.6897-41.4181c4.6451-3.252,9.4802-6.2327,14.9836-9.8314
		C746.6874,1075.614,754.0807,1084.801,763.0727,1092.5157z"/>
	<path d="M1188.2405,1070.2701c5.5594-2.1912,5.6442,1.6506,7.139,3.4211c9.6743-1.4396,18.3197-5.1807,25.9879-10.9193
		c4.7108,2.7888,8.996,5.3254,13.3485,7.9021c8.1769,14.3181,16.5554,28.5432,35.6499,32.139
		c-3.7483,11.3251-8.063,21.1498-19.7413,25.6611c-5.8142-3.0278-10.9567-5.3033-17.4525-5.7926
		c-19.9231-1.5007-43.0991-24.3864-46.4589-44.2837C1186.2017,1075.3682,1186.2155,1072.3037,1188.2405,1070.2701z"/>
	<path d="M860.3333,917.1085c2.0959-10.6241,13.3687-14.2056,18.7808-22.5651c6.2768-9.695,3.1353-20.328,7.8666-29.4664
		c-2.0159-5.9493-3.3767-11.8276-3.7189-18.5562c11.7814-3.0745,18.7009,5.7407,27.0988,9.0818
		c18.2787,39.4473,1.9223,64.7175-19.2069,76.9202C879.0255,931.8915,870.0594,924.8855,860.3333,917.1085z"/>
	<path d="M440.4567,1047.1335c6.7387-13.7922,15.456-23.2986,23.8184-33.1143c3.6821-4.3219,7.3564-5.764,13.0256-4.2872
		c7.6562,1.9944,15.3295,3.4642,22.6153,6.9689c3.8624,1.8578,4.9339,4.213,5.2596,7.4938
		c-11.5964,8.3384-21.8887,17.6342-26.4572,32.4149C467.0631,1048.4789,454.593,1047.074,440.4567,1047.1335z"/>
	<path d="M1468.03,1162.2177c-9.4902-1.7471-18.275-0.8429-25.2351-9.1958c8.1323-10.136,12.5479-22.6106,16.7805-35.7271
		c9.9858,3.2194,19.1514,5.598,29.7595,2.3196C1490.5935,1138.6594,1476.7039,1148.686,1468.03,1162.2177z"/>
	<path d="M481.1465,310.8785c-8.1202,13.68-22.8097,12.4863-35.3702,16.1128C456.6696,319.5899,469.7528,317.1469,481.1465,310.8785
		z"/>
	<path d="M464.8067,187.4658c8.1679-5.0012,4.8148-12.5025,8.0052-18.849c1.1853,5.8466,2.3705,11.6931,3.4607,17.0704
		C472.3054,189.0194,469.0618,187.3042,464.8067,187.4658z"/>
	<path d="M509.9622,153.643c0-3.2484,0-5.1028,0-7.9046c4.8805-0.4597,10.4096-1.3534,11.505-9.3011
		C523.6743,143.3687,523.6743,143.3687,509.9622,153.643z"/>
	<path d="M1023.3588,218.6673c5.4516,4.6794,7.6393,11.1109,9.509,17.7131c-4.7168-1.6975-8.5975-4.4402-11.1037-8.7021
		C1020.7503,224.27,1023.1476,221.6674,1023.3588,218.6673z"/>
	<path d="M508.2114,156.6351c-7.5793,3.8836-15.0326-0.1942-22.6149,0.2213C493.0968,154.7802,500.6328,155.0814,508.2114,156.6351z
		"/>
	<path d="M1354.5111,247.8279c-6.0944-3.3932-7.8824-9.1068-8.3643-15.5272c3.814,4.6078,8.691,8.6313,8.4476,15.4544
		L1354.5111,247.8279z"/>
</g>
</svg>
